<svg width="16" height="16" viewBox="0 0 16 16" fill="none" xmlns="http://www.w3.org/2000/svg">
<path fill-rule="evenodd" clip-rule="evenodd" d="M7.01898 1.52188C7.31851 1.35324 7.65644 1.26465 8.00018 1.26465C8.34391 1.26465 8.68185 1.35324 8.98137 1.52188C9.2809 1.69051 9.53191 1.9335 9.71018 2.22739L9.7121 2.23056L15.3588 11.6572L15.3642 11.6664C15.5388 11.9689 15.6312 12.3117 15.6322 12.661C15.6332 13.0102 15.5427 13.3536 15.3697 13.657C15.1968 13.9604 14.9474 14.2132 14.6465 14.3903C14.3455 14.5674 14.0034 14.6626 13.6542 14.6664L13.6468 14.6665L2.34618 14.6665C1.99698 14.6626 1.65487 14.5674 1.35389 14.3903C1.05291 14.2132 0.803545 13.9604 0.630609 13.657C0.457674 13.3536 0.367194 13.0102 0.368172 12.661C0.36915 12.3117 0.461551 11.9689 0.636183 11.6664L0.641598 11.6572L6.28826 2.23056L6.86016 2.57314L6.29018 2.22739C6.46845 1.9335 6.71945 1.69051 7.01898 1.52188ZM7.43098 2.91757L1.78863 12.337C1.73185 12.4369 1.70182 12.5498 1.7015 12.6647C1.70117 12.7811 1.73133 12.8956 1.78898 12.9967C1.84662 13.0978 1.92975 13.1821 2.03007 13.2411C2.12952 13.2997 2.24244 13.3313 2.35777 13.3331H13.6426C13.7579 13.3313 13.8708 13.2997 13.9703 13.2411C14.0706 13.1821 14.1537 13.0978 14.2114 12.9967C14.269 12.8956 14.2992 12.7811 14.2989 12.6647C14.2985 12.5498 14.2685 12.4369 14.2117 12.3371L8.57018 2.9189C8.56991 2.91845 8.56964 2.91801 8.56937 2.91757C8.51 2.8202 8.42663 2.73968 8.32724 2.68372C8.2274 2.62751 8.11475 2.59798 8.00018 2.59798C7.8856 2.59798 7.77295 2.62751 7.67311 2.68372C7.57372 2.73968 7.49036 2.8202 7.43098 2.91757Z" fill="#D4E140"/>
<path fill-rule="evenodd" clip-rule="evenodd" d="M7.33301 11.3332C7.33301 10.965 7.63148 10.6665 7.99967 10.6665H8.00634C8.37453 10.6665 8.67301 10.965 8.67301 11.3332C8.67301 11.7014 8.37453 11.9998 8.00634 11.9998H7.99967C7.63148 11.9998 7.33301 11.7014 7.33301 11.3332Z" fill="#D4E140"/>
<path fill-rule="evenodd" clip-rule="evenodd" d="M7.99967 5.3335C8.36786 5.3335 8.66634 5.63197 8.66634 6.00016V8.66683C8.66634 9.03502 8.36786 9.3335 7.99967 9.3335C7.63148 9.3335 7.33301 9.03502 7.33301 8.66683V6.00016C7.33301 5.63197 7.63148 5.3335 7.99967 5.3335Z" fill="#D4E140"/>
</svg>
