<svg width="32" height="32" viewBox="0 0 32 32" fill="none" xmlns="http://www.w3.org/2000/svg">
<rect width="32" height="32" rx="16" fill="#101828"/>
<path d="M6 7.11111C6 6.49746 6.49746 6 7.11111 6H10.8889C11.5025 6 12 6.49746 12 7.11111V10.8889C12 11.5025 11.5025 12 10.8889 12H7.11111C6.49746 12 6 11.5025 6 10.8889V7.11111Z" fill="#FFD900"/>
<path d="M6 14.0342C6 13.4205 6.49746 12.9231 7.11111 12.9231H10.8889C11.5025 12.9231 12 13.4205 12 14.0342V17.812C12 18.4256 11.5025 18.9231 10.8889 18.9231H7.11111C6.49746 18.9231 6 18.4256 6 17.812V14.0342Z" fill="#FFD900"/>
<path d="M6 20.9573C6 20.3436 6.49746 19.8462 7.11111 19.8462H10.8889C11.5025 19.8462 12 20.3436 12 20.9573V24.735C12 25.3487 11.5025 25.8462 10.8889 25.8462H7.11111C6.49746 25.8462 6 25.3487 6 24.735V20.9573Z" fill="#FFD900"/>
<path d="M12.923 7.11111C12.923 6.49746 13.4204 6 14.0341 6H17.8119C18.4255 6 18.923 6.49746 18.923 7.11111V10.8889C18.923 11.5025 18.4255 12 17.8119 12H14.0341C13.4204 12 12.923 11.5025 12.923 10.8889V7.11111Z" fill="#FFD900"/>
<path d="M12.923 14.0342C12.923 13.4205 13.4204 12.9231 14.0341 12.9231H17.8119C18.4255 12.9231 18.923 13.4205 18.923 14.0342V17.812C18.923 18.4256 18.4255 18.9231 17.8119 18.9231H14.0341C13.4204 18.9231 12.923 18.4256 12.923 17.812V14.0342Z" fill="#FFD900"/>
<path d="M12.923 20.9573C12.923 20.3436 13.4204 19.8462 14.0341 19.8462H17.8119C18.4255 19.8462 18.923 20.3436 18.923 20.9573V24.735C18.923 25.3487 18.4255 25.8462 17.8119 25.8462H14.0341C13.4204 25.8462 12.923 25.3487 12.923 24.735V20.9573Z" fill="#FFD900"/>
<path d="M19.8462 7.11111C19.8462 6.49746 20.3436 6 20.9573 6H24.735C25.3487 6 25.8462 6.49746 25.8462 7.11111V10.8889C25.8462 11.5025 25.3487 12 24.735 12H20.9573C20.3436 12 19.8462 11.5025 19.8462 10.8889V7.11111Z" fill="#FFD900"/>
<path d="M25.5373 13.5304C25.3907 13.3623 25.2166 13.2289 25.025 13.1379C24.8335 13.0468 24.6281 13 24.4207 13C24.2134 13 24.008 13.0468 23.8164 13.1379C23.6248 13.2289 23.4508 13.3623 23.3042 13.5304L22.9999 13.8793L22.6956 13.5304C22.3995 13.1909 21.9979 13.0002 21.5791 13.0002C21.1603 13.0002 20.7586 13.1909 20.4625 13.5304C20.1664 13.87 20 14.3305 20 14.8106C20 15.2908 20.1664 15.7513 20.4625 16.0908L22.9999 19L25.5373 16.0908C25.684 15.9227 25.8003 15.7231 25.8797 15.5035C25.9591 15.2838 26 15.0484 26 14.8106C26 14.5728 25.9591 14.3374 25.8797 14.1178C25.8003 13.8981 25.684 13.6985 25.5373 13.5304Z" fill="white"/>
<path d="M19.8462 20.9573C19.8462 20.3436 20.3436 19.8462 20.9573 19.8462H24.8889C25.5025 19.8462 26 20.3436 26 20.9573V24.8889C26 25.5025 25.5025 26 24.8889 26H20.9573C20.3436 26 19.8462 25.5025 19.8462 24.8889V20.9573Z" fill="#FFD900"/>
</svg>
