<svg width="223" height="48" viewBox="0 0 223 48" fill="none" xmlns="http://www.w3.org/2000/svg">
<rect width="48" height="48" rx="16" fill="#101828"/>
<rect x="6" y="6" width="10.8" height="10.8" rx="2" fill="#FFD900"/>
<rect x="6" y="18.4619" width="10.8" height="10.8" rx="2" fill="#FFD900"/>
<rect x="6" y="30.9229" width="10.8" height="10.8" rx="2" fill="#FFD900"/>
<rect x="18.4609" y="6" width="10.8" height="10.8" rx="2" fill="#FFD900"/>
<rect x="18.4609" y="18.4619" width="10.8" height="10.8" rx="2" fill="#FFD900"/>
<rect x="18.4609" y="30.9229" width="10.8" height="10.8" rx="2" fill="#FFD900"/>
<rect x="30.9229" y="6" width="10.8" height="10.8" rx="2" fill="#FFD900"/>
<path d="M41.1674 19.5544C40.9035 19.2517 40.5902 19.0116 40.2453 18.8478C39.9005 18.6839 39.5309 18.5996 39.1576 18.5996C38.7843 18.5996 38.4147 18.6839 38.0698 18.8478C37.7249 19.0116 37.4116 19.2517 37.1477 19.5544L36.6001 20.1823L36.0524 19.5544C35.5193 18.9433 34.7964 18.5999 34.0425 18.5999C33.2887 18.5999 32.5657 18.9433 32.0327 19.5544C31.4997 20.1656 31.2002 20.9944 31.2002 21.8587C31.2002 22.723 31.4997 23.5519 32.0327 24.163L36.6001 29.3996L41.1674 24.163C41.4314 23.8605 41.6409 23.5013 41.7838 23.1059C41.9266 22.7105 42.0002 22.2867 42.0002 21.8587C42.0002 21.4307 41.9266 21.007 41.7838 20.6116C41.6409 20.2162 41.4314 19.857 41.1674 19.5544Z" fill="white"/>
<rect x="30.9229" y="30.9229" width="11.0769" height="11.0769" rx="2" fill="#FFD900"/>
<path d="M67.5436 11.0584C66.732 11.0584 66.1084 10.3785 65.5885 9.75532C65.4541 9.59416 65.2949 9.44897 65.1108 9.31978C64.5256 8.90501 63.7642 8.69762 62.8267 8.69762C62.1676 8.69762 61.6023 8.79705 61.1307 8.99592C60.6591 9.19478 60.2983 9.46467 60.0483 9.80557C59.7983 10.1465 59.6705 10.5357 59.6648 10.9732C59.6648 11.3368 59.7472 11.6522 59.9119 11.9192C60.0824 12.1863 60.3125 12.4135 60.6023 12.601C60.892 12.7828 61.2131 12.9363 61.5653 13.0613C61.9176 13.1863 62.2727 13.2914 62.6307 13.3766L64.267 13.7857C64.9261 13.9391 65.5597 14.1465 66.1676 14.4078C66.7812 14.6692 67.3295 14.9988 67.8125 15.3965C68.3011 15.7942 68.6875 16.2743 68.9716 16.8368C69.2557 17.3993 69.3977 18.0584 69.3977 18.8141C69.3977 19.8368 69.1364 20.7374 68.6136 21.5158C68.0909 22.2885 67.3352 22.8936 66.3466 23.3311C65.3636 23.763 64.1733 23.9789 62.7756 23.9789C61.4176 23.9789 60.2386 23.7686 59.2386 23.3482C58.2443 22.9277 57.4659 22.3141 56.9034 21.5073C56.6272 21.107 56.4138 20.6634 56.2635 20.1764C55.9987 19.3191 56.7466 18.5584 57.6439 18.5584C58.4712 18.5584 59.0936 19.2554 59.5666 19.9341C59.6003 19.9825 59.6359 20.0297 59.6733 20.0755C60.0028 20.4789 60.4318 20.78 60.9602 20.9789C61.4943 21.1777 62.0909 21.2772 62.75 21.2772C63.4375 21.2772 64.0398 21.1749 64.5568 20.9703C65.0795 20.7601 65.4886 20.4703 65.7841 20.101C66.0795 19.726 66.2301 19.2885 66.2358 18.7885C66.2301 18.334 66.0966 17.959 65.8352 17.6635C65.5739 17.3624 65.2074 17.1124 64.7358 16.9135C64.2699 16.709 63.7244 16.5272 63.0994 16.3681L61.1136 15.8567C59.6761 15.4874 58.5398 14.9277 57.7045 14.1777C56.875 13.4221 56.4602 12.4192 56.4602 11.1692C56.4602 10.1408 56.7386 9.24023 57.2955 8.46751C57.858 7.69478 58.6222 7.09535 59.5881 6.66921C60.554 6.23739 61.6477 6.02148 62.8693 6.02148C64.108 6.02148 65.1932 6.23739 66.125 6.66921C67.0625 7.09535 67.7983 7.6891 68.3324 8.45046C68.5595 8.77179 68.7399 9.11367 68.8735 9.47609C69.1805 10.3089 68.4312 11.0584 67.5436 11.0584Z" fill="#101828"/>
<path d="M77.8757 23.9703C76.5632 23.9703 75.4297 23.6976 74.4751 23.1522C73.5263 22.601 72.7962 21.8226 72.2848 20.8169C71.7734 19.8056 71.5178 18.6152 71.5178 17.2459C71.5178 15.8993 71.7734 14.7175 72.2848 13.7005C72.8018 12.6777 73.5234 11.8823 74.4496 11.3141C75.3757 10.7402 76.4638 10.4533 77.7138 10.4533C78.5206 10.4533 79.282 10.584 79.9979 10.8453C80.7195 11.101 81.3558 11.4988 81.907 12.0385C82.4638 12.5783 82.9013 13.2658 83.2195 14.101C83.5376 14.9306 83.6967 15.9192 83.6967 17.0669C83.6967 17.5894 83.2732 18.013 82.7507 18.013H74.0064C73.4321 18.013 72.9666 17.5474 72.9666 16.9732C72.9666 16.3989 73.4321 15.9334 74.0064 15.9334H79.1002C80.0029 15.9334 80.7867 15.15 80.3558 14.3567C80.1058 13.8908 79.7564 13.5243 79.3075 13.2573C78.8643 12.9902 78.3473 12.8567 77.7564 12.8567C77.1257 12.8567 76.5717 13.0101 76.0945 13.3169C75.6172 13.6181 75.245 14.0158 74.978 14.5101C74.7166 14.9988 74.5831 15.5357 74.5774 16.1209V17.9363C74.5774 18.6976 74.7166 19.351 74.995 19.8965C75.2734 20.4363 75.6626 20.851 76.1626 21.1408C76.6626 21.4249 77.2479 21.5669 77.9183 21.5669C78.3672 21.5669 78.7734 21.5044 79.1371 21.3794C79.5007 21.2488 79.8161 21.0584 80.0831 20.8084C80.5628 20.3593 81.1471 19.931 81.8001 20.0044L81.8672 20.012C82.7714 20.1136 83.3987 21.0129 82.8779 21.759C82.7717 21.9111 82.6554 22.0573 82.5291 22.1976C82.0234 22.7601 81.3757 23.1976 80.5859 23.5101C79.7962 23.8169 78.8928 23.9703 77.8757 23.9703Z" fill="#101828"/>
<path d="M91.6506 10.6238C92.3095 10.6238 92.8438 11.158 92.8438 11.8169C92.8438 12.4759 92.3095 13.0101 91.6506 13.0101H86.5114C85.8524 13.0101 85.3182 12.4759 85.3182 11.8169C85.3182 11.158 85.8524 10.6238 86.5114 10.6238H91.6506ZM87.1761 9.03001C87.1761 8.17804 87.8668 7.48739 88.7188 7.48739C89.5707 7.48739 90.2614 8.17805 90.2614 9.03001V19.7772C90.2614 20.1919 90.3239 20.5101 90.4489 20.7317C90.5795 20.9476 90.75 21.0953 90.9602 21.1749C91.1705 21.2544 91.4034 21.2942 91.6591 21.2942C91.8523 21.2942 92.0284 21.28 92.1875 21.2516C92.3929 21.2162 92.5993 21.3455 92.6432 21.5492L92.9281 22.8711C93.0161 23.2795 92.7828 23.6837 92.375 23.7743C92.0739 23.8425 91.7045 23.8823 91.267 23.8936C90.4943 23.9164 89.7983 23.7999 89.179 23.5442C88.5597 23.2828 88.0682 22.8794 87.7045 22.334C87.3466 21.7885 87.1705 21.1067 87.1761 20.2885V9.03001Z" fill="#101828"/>
<path d="M106.473 11.0584C105.662 11.0584 105.038 10.3785 104.518 9.75532C104.384 9.59416 104.225 9.44897 104.04 9.31978C103.455 8.90501 102.694 8.69762 101.756 8.69762C101.097 8.69762 100.532 8.79705 100.06 8.99592C99.5888 9.19478 99.228 9.46467 98.978 9.80557C98.728 10.1465 98.6001 10.5357 98.5945 10.9732C98.5945 11.3368 98.6768 11.6522 98.8416 11.9192C99.0121 12.1863 99.2422 12.4135 99.532 12.601C99.8217 12.7828 100.143 12.9363 100.495 13.0613C100.847 13.1863 101.202 13.2914 101.56 13.3766L103.197 13.7857C103.856 13.9391 104.489 14.1465 105.097 14.4078C105.711 14.6692 106.259 14.9988 106.742 15.3965C107.231 15.7942 107.617 16.2743 107.901 16.8368C108.185 17.3993 108.327 18.0584 108.327 18.8141C108.327 19.8368 108.066 20.7374 107.543 21.5158C107.021 22.2885 106.265 22.8936 105.276 23.3311C104.293 23.763 103.103 23.9789 101.705 23.9789C100.347 23.9789 99.1683 23.7686 98.1683 23.3482C97.174 22.9277 96.3956 22.3141 95.8331 21.5073C95.5568 21.107 95.3435 20.6634 95.1931 20.1764C94.9284 19.3191 95.6763 18.5584 96.5736 18.5584C97.4008 18.5584 98.0233 19.2554 98.4962 19.9341C98.53 19.9825 98.5656 20.0297 98.603 20.0755C98.9325 20.4789 99.3615 20.78 99.8899 20.9789C100.424 21.1777 101.021 21.2772 101.68 21.2772C102.367 21.2772 102.969 21.1749 103.487 20.9703C104.009 20.7601 104.418 20.4703 104.714 20.101C105.009 19.726 105.16 19.2885 105.165 18.7885C105.16 18.334 105.026 17.959 104.765 17.6635C104.504 17.3624 104.137 17.1124 103.665 16.9135C103.2 16.709 102.654 16.5272 102.029 16.3681L100.043 15.8567C98.6058 15.4874 97.4695 14.9277 96.6342 14.1777C95.8047 13.4221 95.3899 12.4192 95.3899 11.1692C95.3899 10.1408 95.6683 9.24023 96.2251 8.46751C96.7876 7.69478 97.5518 7.09535 98.5178 6.66921C99.4837 6.23739 100.577 6.02148 101.799 6.02148C103.038 6.02148 104.123 6.23739 105.055 6.66921C105.992 7.09535 106.728 7.6891 107.262 8.45046C107.489 8.77179 107.67 9.11367 107.803 9.47609C108.11 10.3089 107.361 11.0584 106.473 11.0584Z" fill="#101828"/>
<path d="M111.146 8.57574C111.146 7.29686 112.183 6.26012 113.462 6.26012C114.402 6.26012 115.248 6.82817 115.605 7.69784L120.159 18.8132C120.182 18.8705 120.238 18.9078 120.3 18.9078C120.362 18.9078 120.417 18.8705 120.441 18.8132L124.995 7.69784C125.351 6.82817 126.198 6.26012 127.138 6.26012C128.416 6.26012 129.453 7.29685 129.453 8.57573V22.1976C129.453 23.0355 128.774 23.7147 127.936 23.7147C127.098 23.7147 126.419 23.0355 126.419 22.1976V11.8199C126.419 11.7665 126.376 11.7232 126.322 11.7232C126.283 11.7232 126.247 11.7471 126.233 11.7837L121.858 22.613C121.601 23.2479 120.985 23.6635 120.3 23.6635C119.615 23.6635 118.998 23.2473 118.742 22.6118L114.367 11.7581C114.352 11.7216 114.317 11.6976 114.277 11.6976C114.224 11.6976 114.18 11.7409 114.18 11.7943V22.1976C114.18 23.0355 113.501 23.7147 112.663 23.7147C111.826 23.7147 111.146 23.0355 111.146 22.1976V8.57574Z" fill="#101828"/>
<path d="M132.896 8.57573C132.896 7.29686 133.933 6.26012 135.212 6.26012C136.152 6.26012 136.998 6.82817 137.355 7.69784L141.909 18.8132C141.932 18.8705 141.988 18.9078 142.05 18.9078C142.112 18.9078 142.167 18.8705 142.191 18.8132L146.745 7.69784C147.101 6.82817 147.948 6.26012 148.888 6.26012C150.166 6.26012 151.203 7.29685 151.203 8.57573V22.1976C151.203 23.0355 150.524 23.7147 149.686 23.7147C148.848 23.7147 148.169 23.0355 148.169 22.1976V11.8199C148.169 11.7665 148.126 11.7232 148.072 11.7232C148.033 11.7232 147.997 11.7471 147.983 11.7837L143.608 22.613C143.351 23.2479 142.735 23.6635 142.05 23.6635C141.365 23.6635 140.748 23.2473 140.492 22.6118L136.117 11.7581C136.102 11.7216 136.067 11.6976 136.027 11.6976C135.974 11.6976 135.93 11.7409 135.93 11.7943V22.1976C135.93 23.0355 135.251 23.7147 134.413 23.7147C133.576 23.7147 132.896 23.0355 132.896 22.1976V8.57573Z" fill="#101828"/>
<path d="M64.6158 31.7967V41.9785H63.6911V32.6319H58.2074V41.9785H57.2777V31.7967H64.6158ZM67.0668 44.8422V34.3422H67.9268V35.7988H68.0312C68.1373 35.5701 68.2831 35.3365 68.4688 35.0978C68.6544 34.8559 68.8996 34.652 69.2045 34.4863C69.5128 34.3206 69.9006 34.2377 70.3679 34.2377C70.9976 34.2377 71.5478 34.4035 72.0185 34.7349C72.4924 35.063 72.8603 35.5237 73.1222 36.117C73.3873 36.707 73.5199 37.3947 73.5199 38.1802C73.5199 38.969 73.3873 39.6601 73.1222 40.2534C72.8603 40.8467 72.4924 41.309 72.0185 41.6404C71.5478 41.9719 71.0009 42.1376 70.3778 42.1376C69.9171 42.1376 69.531 42.0547 69.2195 41.889C68.9112 41.7233 68.661 41.5195 68.4688 41.2775C68.2798 41.0323 68.134 40.7936 68.0312 40.5616H67.9517V44.8422H67.0668ZM67.9418 38.1653C67.9418 38.7818 68.0329 39.3287 68.2152 39.8059C68.4008 40.2799 68.666 40.6528 69.0107 40.9245C69.3587 41.193 69.7796 41.3272 70.2734 41.3272C70.7805 41.3272 71.2081 41.188 71.5561 40.9096C71.9074 40.6279 72.1742 40.2484 72.3565 39.7711C72.5421 39.2939 72.6349 38.7586 72.6349 38.1653C72.6349 37.5787 72.5438 37.05 72.3615 36.5794C72.1825 36.1087 71.9174 35.7359 71.5661 35.4608C71.2147 35.1824 70.7839 35.0431 70.2734 35.0431C69.7763 35.0431 69.3537 35.1774 69.0057 35.4458C68.6577 35.711 68.3925 36.0789 68.2102 36.5495C68.0312 37.0169 67.9418 37.5555 67.9418 38.1653ZM78.4293 42.1376C77.7698 42.1376 77.1864 41.9702 76.6793 41.6355C76.1755 41.3007 75.7811 40.8384 75.4961 40.2484C75.2111 39.6551 75.0685 38.9707 75.0685 38.1951C75.0685 37.4129 75.2111 36.7252 75.4961 36.1319C75.7811 35.5353 76.1755 35.0713 76.6793 34.7399C77.1864 34.4051 77.7698 34.2377 78.4293 34.2377C79.0889 34.2377 79.6706 34.4051 80.1744 34.7399C80.6781 35.0746 81.0726 35.5386 81.3576 36.1319C81.646 36.7252 81.7901 37.4129 81.7901 38.1951C81.7901 38.9707 81.6476 39.6551 81.3626 40.2484C81.0775 40.8384 80.6815 41.3007 80.1744 41.6355C79.6706 41.9702 79.0889 42.1376 78.4293 42.1376ZM78.4293 41.3272C78.9596 41.3272 79.4087 41.1847 79.7766 40.8997C80.1445 40.6146 80.4229 40.2351 80.6119 39.7612C80.8041 39.2872 80.9002 38.7652 80.9002 38.1951C80.9002 37.6251 80.8041 37.1014 80.6119 36.6241C80.4229 36.1468 80.1445 35.764 79.7766 35.4757C79.4087 35.1873 78.9596 35.0431 78.4293 35.0431C77.9023 35.0431 77.4532 35.1873 77.082 35.4757C76.7141 35.764 76.4341 36.1468 76.2418 36.6241C76.0529 37.1014 75.9585 37.6251 75.9585 38.1951C75.9585 38.7652 76.0529 39.2872 76.2418 39.7612C76.4341 40.2351 76.7141 40.6146 77.082 40.8997C77.4499 41.1847 77.899 41.3272 78.4293 41.3272ZM82.8279 44.1511V41.1433H83.4892C83.6549 40.9577 83.7991 40.7572 83.9217 40.5417C84.0443 40.3263 84.1504 40.081 84.2399 39.8059C84.3327 39.5275 84.4106 39.2044 84.4735 38.8365C84.5365 38.4653 84.5895 38.0327 84.6326 37.5389L84.911 34.3422H89.4302V41.1433H90.5637V44.1511H89.6788V41.9785H83.7179V44.1511H82.8279ZM84.5083 41.1433H88.5453V35.1774H85.7363L85.5076 37.5389C85.4281 38.341 85.3154 39.0403 85.1696 39.6369C85.0237 40.2335 84.8033 40.7356 84.5083 41.1433ZM92.2504 41.9785V34.3422H95.2582C96.0702 34.3422 96.7099 34.5178 97.1772 34.8691C97.6478 35.2205 97.8832 35.6944 97.8832 36.291C97.8832 36.7451 97.7522 37.108 97.4904 37.3798C97.2286 37.6516 96.8772 37.8438 96.4364 37.9565C96.7314 38.0062 97.0049 38.1139 97.2567 38.2797C97.512 38.4454 97.7191 38.6641 97.8782 38.9359C98.0373 39.2077 98.1168 39.5325 98.1168 39.9103C98.1168 40.3081 98.0174 40.6627 97.8185 40.9743C97.6197 41.2858 97.3396 41.5311 96.9783 41.71C96.6171 41.889 96.1895 41.9785 95.6957 41.9785H92.2504ZM93.0955 41.1582H95.6957C96.163 41.1582 96.5326 41.0389 96.8043 40.8002C97.0761 40.5583 97.212 40.2368 97.212 39.8358C97.212 39.4082 97.0827 39.0668 96.8242 38.8116C96.569 38.5531 96.226 38.4238 95.7951 38.4238H93.0955V41.1582ZM93.0955 37.6383H95.3129C95.6576 37.6383 95.9558 37.5853 96.2077 37.4792C96.4596 37.3732 96.6535 37.224 96.7894 37.0318C96.9286 36.8362 96.9966 36.6075 96.9933 36.3457C96.9933 35.9712 96.8408 35.6812 96.5359 35.4757C96.2309 35.2669 95.805 35.1625 95.2582 35.1625H93.0955V37.6383ZM100.942 40.7207L104.974 34.3422H106.033V41.9785H105.148V35.6L101.131 41.9785H100.057V34.3422H100.942V40.7207ZM107.892 41.9785L111.263 38.1206L107.937 34.3422H109.016L111.944 37.7377H112.456V34.3422H113.346V37.7377H113.848L116.776 34.3422H117.855L114.539 38.1206L117.9 41.9785H116.806L113.833 38.573H113.346V41.9785H112.456V38.573H111.969L108.986 41.9785H107.892ZM122.531 42.1376C121.818 42.1376 121.202 41.9719 120.682 41.6404C120.161 41.3057 119.759 40.8433 119.474 40.2534C119.192 39.6601 119.051 38.9773 119.051 38.2051C119.051 37.4361 119.192 36.7534 119.474 36.1568C119.759 35.5569 120.151 35.0879 120.652 34.7498C121.156 34.4084 121.737 34.2377 122.397 34.2377C122.811 34.2377 123.211 34.314 123.595 34.4664C123.979 34.6156 124.324 34.8459 124.629 35.1575C124.937 35.4657 125.181 35.8552 125.36 36.3258C125.539 36.7931 125.628 37.3467 125.628 37.9863V38.4238H119.662V37.6433H124.724C124.724 37.1528 124.624 36.7119 124.425 36.3208C124.23 35.9264 123.956 35.6149 123.605 35.3862C123.257 35.1575 122.854 35.0431 122.397 35.0431C121.913 35.0431 121.487 35.1724 121.119 35.4309C120.751 35.6895 120.463 36.0308 120.254 36.4551C120.049 36.8793 119.944 37.3433 119.941 37.8471V38.3145C119.941 38.921 120.045 39.4513 120.254 39.9054C120.466 40.3561 120.766 40.7058 121.154 40.9544C121.542 41.2029 122.001 41.3272 122.531 41.3272C122.892 41.3272 123.209 41.2709 123.481 41.1582C123.756 41.0455 123.986 40.8947 124.172 40.7058C124.361 40.5136 124.503 40.3031 124.599 40.0744L125.439 40.3478C125.323 40.6693 125.133 40.966 124.868 41.2377C124.606 41.5095 124.278 41.7283 123.883 41.894C123.492 42.0564 123.041 42.1376 122.531 42.1376ZM132.734 37.7477V38.5829H128.245V37.7477H132.734ZM128.463 34.3422V41.9785H127.578V34.3422H128.463ZM133.385 34.3422V41.9785H132.5V34.3422H133.385ZM136.626 40.7207L140.657 34.3422H141.716V41.9785H140.831V35.6L136.814 41.9785H135.741V34.3422H136.626V40.7207ZM148.647 41.9785V35.1625H146.544C145.997 35.1658 145.581 35.2801 145.296 35.5055C145.014 35.7309 144.873 36.0673 144.873 36.5147C144.873 36.9622 145.008 37.2986 145.276 37.524C145.545 37.746 145.936 37.8571 146.449 37.8571H148.895V38.6923H146.449C145.922 38.6923 145.475 38.6078 145.107 38.4387C144.742 38.2697 144.464 38.0228 144.272 37.698C144.08 37.3732 143.983 36.9788 143.983 36.5147C143.983 36.0474 144.081 35.653 144.277 35.3315C144.476 35.0067 144.766 34.7614 145.147 34.5957C145.531 34.4267 145.997 34.3422 146.544 34.3422H149.492V41.9785H148.647ZM143.501 41.9785L145.699 38.1802H146.668L144.471 41.9785H143.501ZM158.767 42.1376C158.084 42.1376 157.489 41.9669 156.982 41.6255C156.478 41.2842 156.087 40.8168 155.808 40.2235C155.53 39.6303 155.391 38.9541 155.391 38.1951C155.391 37.4295 155.532 36.7484 155.813 36.1518C156.098 35.5552 156.493 35.0879 156.997 34.7498C157.5 34.4084 158.085 34.2377 158.752 34.2377C159.262 34.2377 159.724 34.3372 160.139 34.536C160.553 34.7316 160.894 35.0083 161.163 35.3663C161.435 35.7209 161.605 36.1352 161.675 36.6092H160.78C160.687 36.1783 160.463 35.8104 160.109 35.5055C159.758 35.1973 159.31 35.0431 158.767 35.0431C158.279 35.0431 157.848 35.1757 157.474 35.4409C157.099 35.7027 156.806 36.069 156.594 36.5396C156.385 37.0069 156.281 37.5488 156.281 38.1653C156.281 38.7851 156.383 39.3336 156.589 39.8109C156.794 40.2849 157.083 40.6561 157.454 40.9245C157.829 41.193 158.266 41.3272 158.767 41.3272C159.105 41.3272 159.413 41.2643 159.691 41.1383C159.973 41.0091 160.208 40.8268 160.397 40.5914C160.589 40.3561 160.719 40.0761 160.785 39.7512H161.68C161.614 40.2119 161.45 40.6229 161.188 40.9842C160.929 41.3422 160.593 41.6239 160.178 41.8294C159.767 42.0349 159.297 42.1376 158.767 42.1376ZM166.545 42.1376C165.885 42.1376 165.302 41.9702 164.795 41.6355C164.291 41.3007 163.896 40.8384 163.611 40.2484C163.326 39.6551 163.184 38.9707 163.184 38.1951C163.184 37.4129 163.326 36.7252 163.611 36.1319C163.896 35.5353 164.291 35.0713 164.795 34.7399C165.302 34.4051 165.885 34.2377 166.545 34.2377C167.204 34.2377 167.786 34.4051 168.29 34.7399C168.793 35.0746 169.188 35.5386 169.473 36.1319C169.761 36.7252 169.905 37.4129 169.905 38.1951C169.905 38.9707 169.763 39.6551 169.478 40.2484C169.193 40.8384 168.797 41.3007 168.29 41.6355C167.786 41.9702 167.204 42.1376 166.545 42.1376ZM166.545 41.3272C167.075 41.3272 167.524 41.1847 167.892 40.8997C168.26 40.6146 168.538 40.2351 168.727 39.7612C168.919 39.2872 169.015 38.7652 169.015 38.1951C169.015 37.6251 168.919 37.1014 168.727 36.6241C168.538 36.1468 168.26 35.764 167.892 35.4757C167.524 35.1873 167.075 35.0431 166.545 35.0431C166.018 35.0431 165.568 35.1873 165.197 35.4757C164.829 35.764 164.549 36.1468 164.357 36.6241C164.168 37.1014 164.074 37.6251 164.074 38.1951C164.074 38.7652 164.168 39.2872 164.357 39.7612C164.549 40.2351 164.829 40.6146 165.197 40.8997C165.565 41.1847 166.014 41.3272 166.545 41.3272ZM177.64 34.3422V41.1383H178.45V44.4494H177.565V41.9785H171.858V34.3422H172.748V41.1433H176.75V34.3422H177.64ZM187.259 42.1376C186.576 42.1376 185.981 41.9669 185.474 41.6255C184.97 41.2842 184.579 40.8168 184.301 40.2235C184.022 39.6303 183.883 38.9541 183.883 38.1951C183.883 37.4295 184.024 36.7484 184.306 36.1518C184.591 35.5552 184.985 35.0879 185.489 34.7498C185.993 34.4084 186.578 34.2377 187.244 34.2377C187.754 34.2377 188.217 34.3372 188.631 34.536C189.045 34.7316 189.387 35.0083 189.655 35.3663C189.927 35.7209 190.097 36.1352 190.167 36.6092H189.272C189.179 36.1783 188.956 35.8104 188.601 35.5055C188.25 35.1973 187.802 35.0431 187.259 35.0431C186.771 35.0431 186.341 35.1757 185.966 35.4409C185.592 35.7027 185.298 36.069 185.086 36.5396C184.877 37.0069 184.773 37.5488 184.773 38.1653C184.773 38.7851 184.876 39.3336 185.081 39.8109C185.287 40.2849 185.575 40.6561 185.946 40.9245C186.321 41.193 186.758 41.3272 187.259 41.3272C187.597 41.3272 187.905 41.2643 188.183 41.1383C188.465 41.0091 188.7 40.8268 188.889 40.5914C189.082 40.3561 189.211 40.0761 189.277 39.7512H190.172C190.106 40.2119 189.942 40.6229 189.68 40.9842C189.421 41.3422 189.085 41.6239 188.671 41.8294C188.26 42.0349 187.789 42.1376 187.259 42.1376ZM195.156 42.1376C194.443 42.1376 193.827 41.9719 193.307 41.6404C192.786 41.3057 192.384 40.8433 192.099 40.2534C191.817 39.6601 191.676 38.9773 191.676 38.2051C191.676 37.4361 191.817 36.7534 192.099 36.1568C192.384 35.5569 192.776 35.0879 193.277 34.7498C193.781 34.4084 194.362 34.2377 195.022 34.2377C195.436 34.2377 195.836 34.314 196.22 34.4664C196.604 34.6156 196.949 34.8459 197.254 35.1575C197.562 35.4657 197.806 35.8552 197.985 36.3258C198.164 36.7931 198.253 37.3467 198.253 37.9863V38.4238H192.287V37.6433H197.349C197.349 37.1528 197.249 36.7119 197.05 36.3208C196.855 35.9264 196.581 35.6149 196.23 35.3862C195.882 35.1575 195.479 35.0431 195.022 35.0431C194.538 35.0431 194.112 35.1724 193.744 35.4309C193.376 35.6895 193.088 36.0308 192.879 36.4551C192.674 36.8793 192.569 37.3433 192.566 37.8471V38.3145C192.566 38.921 192.67 39.4513 192.879 39.9054C193.091 40.3561 193.391 40.7058 193.779 40.9544C194.167 41.2029 194.626 41.3272 195.156 41.3272C195.517 41.3272 195.834 41.2709 196.106 41.1582C196.381 41.0455 196.611 40.8947 196.797 40.7058C196.986 40.5136 197.128 40.3031 197.224 40.0744L198.064 40.3478C197.948 40.6693 197.758 40.966 197.493 41.2377C197.231 41.5095 196.903 41.7283 196.508 41.894C196.117 42.0564 195.666 42.1376 195.156 42.1376ZM199.463 35.1774V34.3422H205.429V35.1774H202.903V41.9785H202.018V35.1774H199.463ZM209.99 42.1376C209.277 42.1376 208.661 41.9719 208.141 41.6404C207.62 41.3057 207.218 40.8433 206.933 40.2534C206.651 39.6601 206.51 38.9773 206.51 38.2051C206.51 37.4361 206.651 36.7534 206.933 36.1568C207.218 35.5569 207.61 35.0879 208.111 34.7498C208.615 34.4084 209.196 34.2377 209.856 34.2377C210.27 34.2377 210.67 34.314 211.054 34.4664C211.438 34.6156 211.783 34.8459 212.088 35.1575C212.396 35.4657 212.64 35.8552 212.819 36.3258C212.998 36.7931 213.087 37.3467 213.087 37.9863V38.4238H207.121V37.6433H212.183C212.183 37.1528 212.083 36.7119 211.884 36.3208C211.689 35.9264 211.415 35.6149 211.064 35.3862C210.716 35.1575 210.313 35.0431 209.856 35.0431C209.372 35.0431 208.946 35.1724 208.578 35.4309C208.21 35.6895 207.922 36.0308 207.713 36.4551C207.508 36.8793 207.403 37.3433 207.4 37.8471V38.3145C207.4 38.921 207.504 39.4513 207.713 39.9054C207.925 40.3561 208.225 40.7058 208.613 40.9544C209.001 41.2029 209.46 41.3272 209.99 41.3272C210.351 41.3272 210.668 41.2709 210.94 41.1582C211.215 41.0455 211.445 40.8947 211.631 40.7058C211.82 40.5136 211.962 40.3031 212.058 40.0744L212.898 40.3478C212.782 40.6693 212.592 40.966 212.327 41.2377C212.065 41.5095 211.737 41.7283 211.342 41.894C210.951 42.0564 210.5 42.1376 209.99 42.1376ZM215.922 40.7207L219.954 34.3422H221.013V41.9785H220.128V35.6L216.111 41.9785H215.037V34.3422H215.922V40.7207ZM218.94 31.7967H219.775C219.775 32.2707 219.618 32.6551 219.303 32.9501C218.992 33.2451 218.566 33.3926 218.025 33.3926C217.492 33.3926 217.069 33.2451 216.758 32.9501C216.446 32.6551 216.29 32.2707 216.29 31.7967H217.126C217.126 32.0552 217.195 32.274 217.334 32.4529C217.477 32.6286 217.707 32.7164 218.025 32.7164C218.344 32.7164 218.576 32.6286 218.721 32.4529C218.867 32.274 218.94 32.0552 218.94 31.7967Z" fill="#344054"/>
</svg>
