<svg width="223" height="48" viewBox="0 0 223 48" fill="none" xmlns="http://www.w3.org/2000/svg">
<rect width="48" height="48" rx="16" fill="#101828"/>
<rect x="6" y="6" width="10.8" height="10.8" rx="2" fill="#FFD900"/>
<rect x="6" y="18.4617" width="10.8" height="10.8" rx="2" fill="#FFD900"/>
<rect x="6" y="30.9232" width="10.8" height="10.8" rx="2" fill="#FFD900"/>
<rect x="18.4609" y="6" width="10.8" height="10.8" rx="2" fill="#FFD900"/>
<rect x="18.4609" y="18.4617" width="10.8" height="10.8" rx="2" fill="#FFD900"/>
<rect x="18.4609" y="30.9232" width="10.8" height="10.8" rx="2" fill="#FFD900"/>
<rect x="30.9229" y="6" width="10.8" height="10.8" rx="2" fill="#FFD900"/>
<path d="M41.1674 19.5549C40.9035 19.2522 40.5902 19.0121 40.2453 18.8482C39.9005 18.6844 39.5309 18.6001 39.1576 18.6001C38.7843 18.6001 38.4147 18.6844 38.0698 18.8482C37.7249 19.0121 37.4116 19.2522 37.1477 19.5549L36.6001 20.1828L36.0524 19.5549C35.5193 18.9438 34.7964 18.6004 34.0425 18.6004C33.2887 18.6004 32.5657 18.9438 32.0327 19.5549C31.4997 20.166 31.2002 20.9949 31.2002 21.8592C31.2002 22.7235 31.4997 23.5524 32.0327 24.1635L36.6001 29.4001L41.1674 24.1635C41.4314 23.861 41.6409 23.5017 41.7838 23.1064C41.9266 22.711 42.0002 22.2872 42.0002 21.8592C42.0002 21.4312 41.9266 21.0074 41.7838 20.6121C41.6409 20.2167 41.4314 19.8575 41.1674 19.5549Z" fill="white"/>
<rect x="30.9229" y="30.9232" width="11.0769" height="11.0769" rx="2" fill="#FFD900"/>
<path d="M67.5436 11.0583C66.732 11.0583 66.1084 10.3784 65.5885 9.7552C65.4541 9.59403 65.2949 9.44885 65.1108 9.31966C64.5256 8.90489 63.7642 8.6975 62.8267 8.6975C62.1676 8.6975 61.6023 8.79693 61.1307 8.99579C60.6591 9.19466 60.2983 9.46454 60.0483 9.80545C59.7983 10.1464 59.6705 10.5356 59.6648 10.9731C59.6648 11.3367 59.7472 11.652 59.9119 11.9191C60.0824 12.1861 60.3125 12.4134 60.6023 12.6009C60.892 12.7827 61.2131 12.9361 61.5653 13.0611C61.9176 13.1861 62.2727 13.2912 62.6307 13.3765L64.267 13.7856C64.9261 13.939 65.5597 14.1464 66.1676 14.4077C66.7812 14.6691 67.3295 14.9986 67.8125 15.3964C68.3011 15.7941 68.6875 16.2742 68.9716 16.8367C69.2557 17.3992 69.3977 18.0583 69.3977 18.814C69.3977 19.8367 69.1364 20.7373 68.6136 21.5157C68.0909 22.2884 67.3352 22.8935 66.3466 23.331C65.3636 23.7628 64.1733 23.9788 62.7756 23.9788C61.4176 23.9788 60.2386 23.7685 59.2386 23.3481C58.2443 22.9276 57.4659 22.314 56.9034 21.5072C56.6272 21.1069 56.4138 20.6633 56.2635 20.1763C55.9987 19.3189 56.7466 18.5583 57.6439 18.5583C58.4712 18.5583 59.0936 19.2553 59.5666 19.934C59.6003 19.9824 59.6359 20.0295 59.6733 20.0753C60.0028 20.4787 60.4318 20.7799 60.9602 20.9787C61.4943 21.1776 62.0909 21.277 62.75 21.277C63.4375 21.277 64.0398 21.1748 64.5568 20.9702C65.0795 20.76 65.4886 20.4702 65.7841 20.1009C66.0795 19.7259 66.2301 19.2884 66.2358 18.7884C66.2301 18.3339 66.0966 17.9589 65.8352 17.6634C65.5739 17.3623 65.2074 17.1123 64.7358 16.9134C64.2699 16.7089 63.7244 16.527 63.0994 16.368L61.1136 15.8566C59.6761 15.4873 58.5398 14.9276 57.7045 14.1776C56.875 13.4219 56.4602 12.4191 56.4602 11.1691C56.4602 10.1407 56.7386 9.24011 57.2955 8.46739C57.858 7.69466 58.6222 7.09523 59.5881 6.66909C60.554 6.23727 61.6477 6.02136 62.8693 6.02136C64.108 6.02136 65.1932 6.23727 66.125 6.66909C67.0625 7.09523 67.7983 7.68898 68.3324 8.45034C68.5595 8.77167 68.7399 9.11355 68.8735 9.47597C69.1805 10.3088 68.4312 11.0583 67.5436 11.0583Z" fill="white"/>
<path d="M77.8757 23.9702C76.5632 23.9702 75.4297 23.6975 74.4751 23.152C73.5263 22.6009 72.7962 21.8225 72.2848 20.8168C71.7734 19.8055 71.5178 18.6151 71.5178 17.2458C71.5178 15.8992 71.7734 14.7174 72.2848 13.7003C72.8018 12.6776 73.5234 11.8822 74.4496 11.314C75.3757 10.7401 76.4638 10.4532 77.7138 10.4532C78.5206 10.4532 79.282 10.5839 79.9979 10.8452C80.7195 11.1009 81.3558 11.4986 81.907 12.0384C82.4638 12.5782 82.9013 13.2657 83.2195 14.1009C83.5376 14.9305 83.6967 15.9191 83.6967 17.0668C83.6967 17.5893 83.2732 18.0128 82.7507 18.0128H74.0064C73.4321 18.0128 72.9666 17.5473 72.9666 16.9731C72.9666 16.3988 73.4321 15.9333 74.0064 15.9333H79.1002C80.0029 15.9333 80.7867 15.1498 80.3558 14.3566C80.1058 13.8907 79.7564 13.5242 79.3075 13.2572C78.8643 12.9901 78.3473 12.8566 77.7564 12.8566C77.1257 12.8566 76.5717 13.01 76.0945 13.3168C75.6172 13.618 75.245 14.0157 74.978 14.51C74.7166 14.9986 74.5831 15.5356 74.5774 16.1208V17.9361C74.5774 18.6975 74.7166 19.3509 74.995 19.8964C75.2734 20.4361 75.6626 20.8509 76.1626 21.1407C76.6626 21.4248 77.2479 21.5668 77.9183 21.5668C78.3672 21.5668 78.7734 21.5043 79.1371 21.3793C79.5007 21.2486 79.8161 21.0583 80.0831 20.8083C80.5628 20.3592 81.1471 19.9309 81.8001 20.0043L81.8672 20.0119C82.7714 20.1135 83.3987 21.0128 82.8779 21.7588C82.7717 21.9109 82.6554 22.0572 82.5291 22.1975C82.0234 22.76 81.3757 23.1975 80.5859 23.51C79.7962 23.8168 78.8928 23.9702 77.8757 23.9702Z" fill="white"/>
<path d="M91.6506 10.6236C92.3095 10.6236 92.8438 11.1578 92.8438 11.8168C92.8438 12.4758 92.3095 13.01 91.6506 13.01H86.5114C85.8524 13.01 85.3182 12.4758 85.3182 11.8168C85.3182 11.1578 85.8524 10.6236 86.5114 10.6236H91.6506ZM87.1761 9.02988C87.1761 8.17792 87.8668 7.48727 88.7188 7.48727C89.5707 7.48727 90.2614 8.17792 90.2614 9.02989V19.777C90.2614 20.1918 90.3239 20.51 90.4489 20.7316C90.5795 20.9475 90.75 21.0952 90.9602 21.1748C91.1705 21.2543 91.4034 21.2941 91.6591 21.2941C91.8523 21.2941 92.0284 21.2799 92.1875 21.2515C92.3929 21.2161 92.5993 21.3453 92.6432 21.5491L92.9281 22.871C93.0161 23.2794 92.7828 23.6836 92.375 23.7742C92.0739 23.8424 91.7045 23.8822 91.267 23.8935C90.4943 23.9163 89.7983 23.7998 89.179 23.5441C88.5597 23.2827 88.0682 22.8793 87.7045 22.3339C87.3466 21.7884 87.1705 21.1066 87.1761 20.2884V9.02988Z" fill="white"/>
<path d="M106.473 11.0583C105.662 11.0583 105.038 10.3784 104.518 9.7552C104.384 9.59403 104.225 9.44885 104.04 9.31966C103.455 8.90489 102.694 8.6975 101.756 8.6975C101.097 8.6975 100.532 8.79693 100.06 8.99579C99.5888 9.19466 99.228 9.46454 98.978 9.80545C98.728 10.1464 98.6001 10.5356 98.5945 10.9731C98.5945 11.3367 98.6768 11.652 98.8416 11.9191C99.0121 12.1861 99.2422 12.4134 99.532 12.6009C99.8217 12.7827 100.143 12.9361 100.495 13.0611C100.847 13.1861 101.202 13.2912 101.56 13.3765L103.197 13.7856C103.856 13.939 104.489 14.1464 105.097 14.4077C105.711 14.6691 106.259 14.9986 106.742 15.3964C107.231 15.7941 107.617 16.2742 107.901 16.8367C108.185 17.3992 108.327 18.0583 108.327 18.814C108.327 19.8367 108.066 20.7373 107.543 21.5157C107.021 22.2884 106.265 22.8935 105.276 23.331C104.293 23.7628 103.103 23.9788 101.705 23.9788C100.347 23.9788 99.1683 23.7685 98.1683 23.3481C97.174 22.9276 96.3956 22.314 95.8331 21.5072C95.5568 21.1069 95.3435 20.6633 95.1931 20.1763C94.9284 19.3189 95.6763 18.5583 96.5736 18.5583C97.4008 18.5583 98.0233 19.2553 98.4962 19.934C98.53 19.9824 98.5656 20.0295 98.603 20.0753C98.9325 20.4787 99.3615 20.7799 99.8899 20.9787C100.424 21.1776 101.021 21.277 101.68 21.277C102.367 21.277 102.969 21.1748 103.487 20.9702C104.009 20.76 104.418 20.4702 104.714 20.1009C105.009 19.7259 105.16 19.2884 105.165 18.7884C105.16 18.3339 105.026 17.9589 104.765 17.6634C104.504 17.3623 104.137 17.1123 103.665 16.9134C103.2 16.7089 102.654 16.527 102.029 16.368L100.043 15.8566C98.6058 15.4873 97.4695 14.9276 96.6342 14.1776C95.8047 13.4219 95.3899 12.4191 95.3899 11.1691C95.3899 10.1407 95.6683 9.24011 96.2251 8.46739C96.7876 7.69466 97.5518 7.09523 98.5178 6.66909C99.4837 6.23727 100.577 6.02136 101.799 6.02136C103.038 6.02136 104.123 6.23727 105.055 6.66909C105.992 7.09523 106.728 7.68898 107.262 8.45034C107.489 8.77167 107.67 9.11355 107.803 9.47597C108.11 10.3088 107.361 11.0583 106.473 11.0583Z" fill="white"/>
<path d="M111.146 8.57561C111.146 7.29674 112.183 6.26 113.462 6.26C114.402 6.26 115.248 6.82805 115.605 7.69772L120.159 18.8131C120.182 18.8703 120.238 18.9077 120.3 18.9077C120.362 18.9077 120.417 18.8703 120.441 18.8131L124.995 7.69772C125.351 6.82805 126.198 6.26 127.138 6.26C128.416 6.26 129.453 7.29673 129.453 8.57561V22.1975C129.453 23.0353 128.774 23.7145 127.936 23.7145C127.098 23.7145 126.419 23.0353 126.419 22.1975V11.8198C126.419 11.7664 126.376 11.7231 126.322 11.7231C126.283 11.7231 126.247 11.747 126.233 11.7835L121.858 22.6128C121.601 23.2477 120.985 23.6634 120.3 23.6634C119.615 23.6634 118.998 23.2472 118.742 22.6117L114.367 11.758C114.352 11.7215 114.317 11.6975 114.277 11.6975C114.224 11.6975 114.18 11.7408 114.18 11.7942V22.1975C114.18 23.0353 113.501 23.7145 112.663 23.7145C111.826 23.7145 111.146 23.0353 111.146 22.1975V8.57561Z" fill="white"/>
<path d="M132.896 8.57561C132.896 7.29673 133.933 6.26 135.212 6.26C136.152 6.26 136.998 6.82805 137.355 7.69772L141.909 18.8131C141.932 18.8703 141.988 18.9077 142.05 18.9077C142.112 18.9077 142.167 18.8703 142.191 18.8131L146.745 7.69772C147.101 6.82805 147.948 6.26 148.888 6.26C150.166 6.26 151.203 7.29673 151.203 8.57561V22.1975C151.203 23.0353 150.524 23.7145 149.686 23.7145C148.848 23.7145 148.169 23.0353 148.169 22.1975V11.8198C148.169 11.7664 148.126 11.7231 148.072 11.7231C148.033 11.7231 147.997 11.747 147.983 11.7835L143.608 22.6128C143.351 23.2477 142.735 23.6634 142.05 23.6634C141.365 23.6634 140.748 23.2472 140.492 22.6117L136.117 11.758C136.102 11.7215 136.067 11.6975 136.027 11.6975C135.974 11.6975 135.93 11.7408 135.93 11.7942V22.1975C135.93 23.0353 135.251 23.7145 134.413 23.7145C133.576 23.7145 132.896 23.0353 132.896 22.1975V8.57561Z" fill="white"/>
<path d="M64.6158 31.7969V41.9788H63.6911V32.6322H58.2074V41.9788H57.2777V31.7969H64.6158ZM67.0668 44.8424V34.3424H67.9268V35.7991H68.0312C68.1373 35.5704 68.2831 35.3367 68.4688 35.0981C68.6544 34.8561 68.8996 34.6523 69.2045 34.4866C69.5128 34.3209 69.9006 34.238 70.3679 34.238C70.9976 34.238 71.5478 34.4037 72.0185 34.7352C72.4924 35.0633 72.8603 35.524 73.1222 36.1173C73.3873 36.7072 73.5199 37.395 73.5199 38.1805C73.5199 38.9693 73.3873 39.6603 73.1222 40.2536C72.8603 40.8469 72.4924 41.3093 72.0185 41.6407C71.5478 41.9721 71.0009 42.1379 70.3778 42.1379C69.9171 42.1379 69.531 42.055 69.2195 41.8893C68.9112 41.7236 68.661 41.5197 68.4688 41.2778C68.2798 41.0325 68.134 40.7939 68.0312 40.5619H67.9517V44.8424H67.0668ZM67.9418 38.1655C67.9418 38.782 68.0329 39.3289 68.2152 39.8062C68.4008 40.2801 68.666 40.653 69.0107 40.9248C69.3587 41.1932 69.7796 41.3275 70.2734 41.3275C70.7805 41.3275 71.2081 41.1883 71.5561 40.9099C71.9074 40.6281 72.1742 40.2486 72.3565 39.7714C72.5421 39.2941 72.6349 38.7588 72.6349 38.1655C72.6349 37.5789 72.5438 37.0503 72.3615 36.5796C72.1825 36.109 71.9174 35.7361 71.5661 35.461C71.2147 35.1826 70.7839 35.0434 70.2734 35.0434C69.7763 35.0434 69.3537 35.1776 69.0057 35.4461C68.6577 35.7112 68.3925 36.0791 68.2102 36.5498C68.0312 37.0171 67.9418 37.5557 67.9418 38.1655ZM78.4293 42.1379C77.7698 42.1379 77.1864 41.9705 76.6793 41.6357C76.1755 41.301 75.7811 40.8386 75.4961 40.2486C75.2111 39.6554 75.0685 38.9709 75.0685 38.1954C75.0685 37.4132 75.2111 36.7254 75.4961 36.1322C75.7811 35.5356 76.1755 35.0716 76.6793 34.7401C77.1864 34.4054 77.7698 34.238 78.4293 34.238C79.0889 34.238 79.6706 34.4054 80.1744 34.7401C80.6781 35.0749 81.0726 35.5389 81.3576 36.1322C81.646 36.7254 81.7901 37.4132 81.7901 38.1954C81.7901 38.9709 81.6476 39.6554 81.3626 40.2486C81.0775 40.8386 80.6815 41.301 80.1744 41.6357C79.6706 41.9705 79.0889 42.1379 78.4293 42.1379ZM78.4293 41.3275C78.9596 41.3275 79.4087 41.185 79.7766 40.8999C80.1445 40.6149 80.4229 40.2354 80.6119 39.7614C80.8041 39.2875 80.9002 38.7655 80.9002 38.1954C80.9002 37.6253 80.8041 37.1016 80.6119 36.6244C80.4229 36.1471 80.1445 35.7643 79.7766 35.4759C79.4087 35.1876 78.9596 35.0434 78.4293 35.0434C77.9023 35.0434 77.4532 35.1876 77.082 35.4759C76.7141 35.7643 76.4341 36.1471 76.2418 36.6244C76.0529 37.1016 75.9585 37.6253 75.9585 38.1954C75.9585 38.7655 76.0529 39.2875 76.2418 39.7614C76.4341 40.2354 76.7141 40.6149 77.082 40.8999C77.4499 41.185 77.899 41.3275 78.4293 41.3275ZM82.8279 44.1513V41.1435H83.4892C83.6549 40.9579 83.7991 40.7574 83.9217 40.542C84.0443 40.3265 84.1504 40.0813 84.2399 39.8062C84.3327 39.5278 84.4106 39.2046 84.4735 38.8367C84.5365 38.4655 84.5895 38.033 84.6326 37.5391L84.911 34.3424H89.4302V41.1435H90.5637V44.1513H89.6788V41.9788H83.7179V44.1513H82.8279ZM84.5083 41.1435H88.5453V35.1776H85.7363L85.5076 37.5391C85.4281 38.3412 85.3154 39.0405 85.1696 39.6371C85.0237 40.2337 84.8033 40.7359 84.5083 41.1435ZM92.2504 41.9788V34.3424H95.2582C96.0702 34.3424 96.7099 34.5181 97.1772 34.8694C97.6478 35.2207 97.8832 35.6947 97.8832 36.2913C97.8832 36.7453 97.7522 37.1083 97.4904 37.38C97.2286 37.6518 96.8772 37.8441 96.4364 37.9567C96.7314 38.0065 97.0049 38.1142 97.2567 38.2799C97.512 38.4456 97.7191 38.6644 97.8782 38.9361C98.0373 39.2079 98.1168 39.5327 98.1168 39.9106C98.1168 40.3083 98.0174 40.6629 97.8185 40.9745C97.6197 41.2861 97.3396 41.5313 96.9783 41.7103C96.6171 41.8893 96.1895 41.9788 95.6957 41.9788H92.2504ZM93.0955 41.1584H95.6957C96.163 41.1584 96.5326 41.0391 96.8043 40.8005C97.0761 40.5585 97.212 40.237 97.212 39.836C97.212 39.4084 97.0827 39.0671 96.8242 38.8119C96.569 38.5533 96.226 38.4241 95.7951 38.4241H93.0955V41.1584ZM93.0955 37.6386H95.3129C95.6576 37.6386 95.9558 37.5855 96.2077 37.4795C96.4596 37.3734 96.6535 37.2243 96.7894 37.032C96.9286 36.8365 96.9966 36.6078 96.9933 36.3459C96.9933 35.9714 96.8408 35.6814 96.5359 35.4759C96.2309 35.2671 95.805 35.1627 95.2582 35.1627H93.0955V37.6386ZM100.942 40.7209L104.974 34.3424H106.033V41.9788H105.148V35.6002L101.131 41.9788H100.057V34.3424H100.942V40.7209ZM107.892 41.9788L111.263 38.1208L107.937 34.3424H109.016L111.944 37.738H112.456V34.3424H113.346V37.738H113.848L116.776 34.3424H117.855L114.539 38.1208L117.9 41.9788H116.806L113.833 38.5732H113.346V41.9788H112.456V38.5732H111.969L108.986 41.9788H107.892ZM122.531 42.1379C121.818 42.1379 121.202 41.9721 120.682 41.6407C120.161 41.3059 119.759 40.8436 119.474 40.2536C119.192 39.6603 119.051 38.9776 119.051 38.2053C119.051 37.4364 119.192 36.7536 119.474 36.157C119.759 35.5571 120.151 35.0881 120.652 34.7501C121.156 34.4087 121.737 34.238 122.397 34.238C122.811 34.238 123.211 34.3142 123.595 34.4667C123.979 34.6158 124.324 34.8462 124.629 35.1577C124.937 35.466 125.181 35.8554 125.36 36.3261C125.539 36.7934 125.628 37.3469 125.628 37.9866V38.4241H119.662V37.6435H124.724C124.724 37.153 124.624 36.7122 124.425 36.3211C124.23 35.9267 123.956 35.6151 123.605 35.3864C123.257 35.1577 122.854 35.0434 122.397 35.0434C121.913 35.0434 121.487 35.1727 121.119 35.4312C120.751 35.6897 120.463 36.0311 120.254 36.4553C120.049 36.8796 119.944 37.3436 119.941 37.8474V38.3147C119.941 38.9212 120.045 39.4515 120.254 39.9056C120.466 40.3564 120.766 40.706 121.154 40.9546C121.542 41.2032 122.001 41.3275 122.531 41.3275C122.892 41.3275 123.209 41.2711 123.481 41.1584C123.756 41.0458 123.986 40.895 124.172 40.706C124.361 40.5138 124.503 40.3033 124.599 40.0746L125.439 40.3481C125.323 40.6696 125.133 40.9662 124.868 41.238C124.606 41.5098 124.278 41.7285 123.883 41.8942C123.492 42.0566 123.041 42.1379 122.531 42.1379ZM132.734 37.7479V38.5832H128.245V37.7479H132.734ZM128.463 34.3424V41.9788H127.578V34.3424H128.463ZM133.385 34.3424V41.9788H132.5V34.3424H133.385ZM136.626 40.7209L140.657 34.3424H141.716V41.9788H140.831V35.6002L136.814 41.9788H135.741V34.3424H136.626V40.7209ZM148.647 41.9788V35.1627H146.544C145.997 35.166 145.581 35.2804 145.296 35.5057C145.014 35.7311 144.873 36.0675 144.873 36.515C144.873 36.9624 145.008 37.2988 145.276 37.5242C145.545 37.7463 145.936 37.8573 146.449 37.8573H148.895V38.6925H146.449C145.922 38.6925 145.475 38.608 145.107 38.439C144.742 38.27 144.464 38.023 144.272 37.6982C144.08 37.3734 143.983 36.979 143.983 36.515C143.983 36.0477 144.081 35.6532 144.277 35.3317C144.476 35.0069 144.766 34.7617 145.147 34.5959C145.531 34.4269 145.997 34.3424 146.544 34.3424H149.492V41.9788H148.647ZM143.501 41.9788L145.699 38.1805H146.668L144.471 41.9788H143.501ZM158.767 42.1379C158.084 42.1379 157.489 41.9672 156.982 41.6258C156.478 41.2844 156.087 40.8171 155.808 40.2238C155.53 39.6305 155.391 38.9544 155.391 38.1954C155.391 37.4298 155.532 36.7486 155.813 36.1521C156.098 35.5555 156.493 35.0881 156.997 34.7501C157.5 34.4087 158.085 34.238 158.752 34.238C159.262 34.238 159.724 34.3374 160.139 34.5363C160.553 34.7318 160.894 35.0086 161.163 35.3665C161.435 35.7212 161.605 36.1355 161.675 36.6094H160.78C160.687 36.1786 160.463 35.8107 160.109 35.5057C159.758 35.1975 159.31 35.0434 158.767 35.0434C158.279 35.0434 157.848 35.176 157.474 35.4411C157.099 35.703 156.806 36.0692 156.594 36.5398C156.385 37.0072 156.281 37.5491 156.281 38.1655C156.281 38.7853 156.383 39.3339 156.589 39.8111C156.794 40.2851 157.083 40.6563 157.454 40.9248C157.829 41.1932 158.266 41.3275 158.767 41.3275C159.105 41.3275 159.413 41.2645 159.691 41.1386C159.973 41.0093 160.208 40.827 160.397 40.5917C160.589 40.3564 160.719 40.0763 160.785 39.7515H161.68C161.614 40.2122 161.45 40.6232 161.188 40.9844C160.929 41.3424 160.593 41.6241 160.178 41.8296C159.767 42.0351 159.297 42.1379 158.767 42.1379ZM166.545 42.1379C165.885 42.1379 165.302 41.9705 164.795 41.6357C164.291 41.301 163.896 40.8386 163.611 40.2486C163.326 39.6554 163.184 38.9709 163.184 38.1954C163.184 37.4132 163.326 36.7254 163.611 36.1322C163.896 35.5356 164.291 35.0716 164.795 34.7401C165.302 34.4054 165.885 34.238 166.545 34.238C167.204 34.238 167.786 34.4054 168.29 34.7401C168.793 35.0749 169.188 35.5389 169.473 36.1322C169.761 36.7254 169.905 37.4132 169.905 38.1954C169.905 38.9709 169.763 39.6554 169.478 40.2486C169.193 40.8386 168.797 41.301 168.29 41.6357C167.786 41.9705 167.204 42.1379 166.545 42.1379ZM166.545 41.3275C167.075 41.3275 167.524 41.185 167.892 40.8999C168.26 40.6149 168.538 40.2354 168.727 39.7614C168.919 39.2875 169.015 38.7655 169.015 38.1954C169.015 37.6253 168.919 37.1016 168.727 36.6244C168.538 36.1471 168.26 35.7643 167.892 35.4759C167.524 35.1876 167.075 35.0434 166.545 35.0434C166.018 35.0434 165.568 35.1876 165.197 35.4759C164.829 35.7643 164.549 36.1471 164.357 36.6244C164.168 37.1016 164.074 37.6253 164.074 38.1954C164.074 38.7655 164.168 39.2875 164.357 39.7614C164.549 40.2354 164.829 40.6149 165.197 40.8999C165.565 41.185 166.014 41.3275 166.545 41.3275ZM177.64 34.3424V41.1386H178.45V44.4496H177.565V41.9788H171.858V34.3424H172.748V41.1435H176.75V34.3424H177.64ZM187.259 42.1379C186.576 42.1379 185.981 41.9672 185.474 41.6258C184.97 41.2844 184.579 40.8171 184.301 40.2238C184.022 39.6305 183.883 38.9544 183.883 38.1954C183.883 37.4298 184.024 36.7486 184.306 36.1521C184.591 35.5555 184.985 35.0881 185.489 34.7501C185.993 34.4087 186.578 34.238 187.244 34.238C187.754 34.238 188.217 34.3374 188.631 34.5363C189.045 34.7318 189.387 35.0086 189.655 35.3665C189.927 35.7212 190.097 36.1355 190.167 36.6094H189.272C189.179 36.1786 188.956 35.8107 188.601 35.5057C188.25 35.1975 187.802 35.0434 187.259 35.0434C186.771 35.0434 186.341 35.176 185.966 35.4411C185.592 35.703 185.298 36.0692 185.086 36.5398C184.877 37.0072 184.773 37.5491 184.773 38.1655C184.773 38.7853 184.876 39.3339 185.081 39.8111C185.287 40.2851 185.575 40.6563 185.946 40.9248C186.321 41.1932 186.758 41.3275 187.259 41.3275C187.597 41.3275 187.905 41.2645 188.183 41.1386C188.465 41.0093 188.7 40.827 188.889 40.5917C189.082 40.3564 189.211 40.0763 189.277 39.7515H190.172C190.106 40.2122 189.942 40.6232 189.68 40.9844C189.421 41.3424 189.085 41.6241 188.671 41.8296C188.26 42.0351 187.789 42.1379 187.259 42.1379ZM195.156 42.1379C194.443 42.1379 193.827 41.9721 193.307 41.6407C192.786 41.3059 192.384 40.8436 192.099 40.2536C191.817 39.6603 191.676 38.9776 191.676 38.2053C191.676 37.4364 191.817 36.7536 192.099 36.157C192.384 35.5571 192.776 35.0881 193.277 34.7501C193.781 34.4087 194.362 34.238 195.022 34.238C195.436 34.238 195.836 34.3142 196.22 34.4667C196.604 34.6158 196.949 34.8462 197.254 35.1577C197.562 35.466 197.806 35.8554 197.985 36.3261C198.164 36.7934 198.253 37.3469 198.253 37.9866V38.4241H192.287V37.6435H197.349C197.349 37.153 197.249 36.7122 197.05 36.3211C196.855 35.9267 196.581 35.6151 196.23 35.3864C195.882 35.1577 195.479 35.0434 195.022 35.0434C194.538 35.0434 194.112 35.1727 193.744 35.4312C193.376 35.6897 193.088 36.0311 192.879 36.4553C192.674 36.8796 192.569 37.3436 192.566 37.8474V38.3147C192.566 38.9212 192.67 39.4515 192.879 39.9056C193.091 40.3564 193.391 40.706 193.779 40.9546C194.167 41.2032 194.626 41.3275 195.156 41.3275C195.517 41.3275 195.834 41.2711 196.106 41.1584C196.381 41.0458 196.611 40.895 196.797 40.706C196.986 40.5138 197.128 40.3033 197.224 40.0746L198.064 40.3481C197.948 40.6696 197.758 40.9662 197.493 41.238C197.231 41.5098 196.903 41.7285 196.508 41.8942C196.117 42.0566 195.666 42.1379 195.156 42.1379ZM199.463 35.1776V34.3424H205.429V35.1776H202.903V41.9788H202.018V35.1776H199.463ZM209.99 42.1379C209.277 42.1379 208.661 41.9721 208.141 41.6407C207.62 41.3059 207.218 40.8436 206.933 40.2536C206.651 39.6603 206.51 38.9776 206.51 38.2053C206.51 37.4364 206.651 36.7536 206.933 36.157C207.218 35.5571 207.61 35.0881 208.111 34.7501C208.615 34.4087 209.196 34.238 209.856 34.238C210.27 34.238 210.67 34.3142 211.054 34.4667C211.438 34.6158 211.783 34.8462 212.088 35.1577C212.396 35.466 212.64 35.8554 212.819 36.3261C212.998 36.7934 213.087 37.3469 213.087 37.9866V38.4241H207.121V37.6435H212.183C212.183 37.153 212.083 36.7122 211.884 36.3211C211.689 35.9267 211.415 35.6151 211.064 35.3864C210.716 35.1577 210.313 35.0434 209.856 35.0434C209.372 35.0434 208.946 35.1727 208.578 35.4312C208.21 35.6897 207.922 36.0311 207.713 36.4553C207.508 36.8796 207.403 37.3436 207.4 37.8474V38.3147C207.4 38.9212 207.504 39.4515 207.713 39.9056C207.925 40.3564 208.225 40.706 208.613 40.9546C209.001 41.2032 209.46 41.3275 209.99 41.3275C210.351 41.3275 210.668 41.2711 210.94 41.1584C211.215 41.0458 211.445 40.895 211.631 40.706C211.82 40.5138 211.962 40.3033 212.058 40.0746L212.898 40.3481C212.782 40.6696 212.592 40.9662 212.327 41.238C212.065 41.5098 211.737 41.7285 211.342 41.8942C210.951 42.0566 210.5 42.1379 209.99 42.1379ZM215.922 40.7209L219.954 34.3424H221.013V41.9788H220.128V35.6002L216.111 41.9788H215.037V34.3424H215.922V40.7209ZM218.94 31.7969H219.775C219.775 32.2709 219.618 32.6554 219.303 32.9504C218.992 33.2453 218.566 33.3928 218.025 33.3928C217.492 33.3928 217.069 33.2453 216.758 32.9504C216.446 32.6554 216.29 32.2709 216.29 31.7969H217.126C217.126 32.0555 217.195 32.2742 217.334 32.4532C217.477 32.6289 217.707 32.7167 218.025 32.7167C218.344 32.7167 218.576 32.6289 218.721 32.4532C218.867 32.2742 218.94 32.0555 218.94 31.7969Z" fill="#F2F4F7"/>
</svg>
