<svg width="56" height="56" viewBox="0 0 56 56" fill="none" xmlns="http://www.w3.org/2000/svg">
<rect width="56" height="56" rx="12" fill="#5865F2"/>
<path d="M40.4954 16.3044C38.1344 15.1906 35.6368 14.3992 33.0684 13.9512C32.7485 14.5343 32.3747 15.3187 32.1169 15.9427C29.3477 15.5229 26.604 15.5229 23.8857 15.9427C23.6281 15.3188 23.2459 14.5343 22.923 13.9512C20.3521 14.3994 17.8523 15.1928 15.4903 16.3102C10.79 23.4717 9.51582 30.455 10.1528 37.3396C13.2704 39.6869 16.2916 41.1128 19.2618 42.0459C20 41.0224 20.6526 39.9387 21.2127 38.8062C20.1463 38.3969 19.1182 37.8924 18.1406 37.2988C18.3979 37.1065 18.6491 36.9062 18.8938 36.698C24.8172 39.4915 31.2533 39.4915 37.1062 36.698C37.352 36.9048 37.6031 37.1051 37.8592 37.2988C36.8801 37.8939 35.8501 38.3994 34.7815 38.8092C35.3448 39.9463 35.9962 41.031 36.7324 42.0487C39.7055 41.1158 42.7295 39.6898 45.847 37.3396C46.5945 29.3588 44.5701 22.4393 40.4954 16.3043V16.3044ZM22.0198 33.1057C20.2416 33.1057 18.7833 31.4319 18.7833 29.3938C18.7833 27.3556 20.2105 25.679 22.0198 25.679C23.8292 25.679 25.2873 27.3526 25.2563 29.3938C25.2591 31.4319 23.8292 33.1057 22.0198 33.1057ZM33.9801 33.1057C32.2019 33.1057 30.7437 31.4319 30.7437 29.3938C30.7437 27.3556 32.1708 25.679 33.9801 25.679C35.7895 25.679 37.2476 27.3526 37.2165 29.3938C37.2165 31.4319 35.7895 33.1057 33.9801 33.1057Z" fill="white"/>
</svg>
