<svg width="56" height="56" viewBox="0 0 56 56" fill="none" xmlns="http://www.w3.org/2000/svg">
<rect width="56" height="56" rx="12" fill="url(#paint0_linear_39_1110)"/>
<path d="M22.0014 28.0002C22.0014 24.6865 24.687 21.9995 28.0007 21.9995C31.3144 21.9995 34.0014 24.6865 34.0014 28.0002C34.0014 31.3139 31.3144 34.0009 28.0007 34.0009C24.687 34.0009 22.0014 31.3139 22.0014 28.0002ZM18.7576 28.0002C18.7576 33.1052 22.8957 37.2434 28.0007 37.2434C33.1057 37.2434 37.2439 33.1052 37.2439 28.0002C37.2439 22.8952 33.1057 18.7571 28.0007 18.7571C22.8957 18.7571 18.7576 22.8952 18.7576 28.0002ZM35.4497 18.3906C35.4495 18.8178 35.5761 19.2355 35.8133 19.5908C36.0505 19.9461 36.3877 20.2231 36.7824 20.3868C37.177 20.5504 37.6113 20.5934 38.0304 20.5102C38.4494 20.427 38.8344 20.2214 39.1366 19.9195C39.4388 19.6175 39.6447 19.2327 39.7282 18.8137C39.8117 18.3947 39.7691 17.9604 39.6058 17.5656C39.4424 17.1708 39.1657 16.8334 38.8106 16.5959C38.4555 16.3584 38.0379 16.2315 37.6107 16.2314H37.6098C37.0371 16.2316 36.488 16.4592 36.083 16.864C35.678 17.2689 35.4502 17.8179 35.4497 18.3906ZM20.7284 42.6524C18.9734 42.5725 18.0195 42.2801 17.3856 42.0332C16.5452 41.706 15.9456 41.3163 15.3151 40.6867C14.6847 40.0571 14.2944 39.458 13.9687 38.6176C13.7215 37.984 13.4292 37.0298 13.3494 35.2748C13.2622 33.3774 13.2447 32.8074 13.2447 28.0004C13.2447 23.1933 13.2636 22.6249 13.3494 20.7259C13.4294 18.9709 13.7238 18.0186 13.9687 17.3831C14.2958 16.5427 14.6855 15.9431 15.3151 15.3126C15.9447 14.6821 16.5438 14.2919 17.3856 13.9662C18.0192 13.719 18.9734 13.4267 20.7284 13.3469C22.6258 13.2597 23.1958 13.2422 28.0007 13.2422C32.8056 13.2422 33.3762 13.2611 35.2752 13.3469C37.0302 13.4268 37.9825 13.7213 38.618 13.9662C39.4584 14.2919 40.058 14.683 40.6885 15.3126C41.319 15.9422 41.7078 16.5427 42.0349 17.3831C42.2821 18.0167 42.5744 18.9709 42.6542 20.7259C42.7414 22.6249 42.7589 23.1933 42.7589 28.0004C42.7589 32.8074 42.7414 33.3758 42.6542 35.2748C42.5742 37.0298 42.2805 37.9837 42.0349 38.6176C41.7078 39.458 41.3181 40.0577 40.6885 40.6867C40.0589 41.3157 39.4584 41.706 38.618 42.0332C37.9844 42.2803 37.0302 42.5726 35.2752 42.6524C33.3778 42.7397 32.8078 42.7571 28.0007 42.7571C23.1937 42.7571 22.6253 42.7397 20.7284 42.6524ZM20.5794 10.1085C18.6631 10.1958 17.3537 10.4996 16.2101 10.9446C15.0258 11.4041 14.0232 12.0206 13.0214 13.0209C12.0195 14.0212 11.4046 15.0253 10.9451 16.2096C10.5001 17.3539 10.1963 18.6626 10.109 20.5789C10.0203 22.4982 10 23.1118 10 28.0002C10 32.8887 10.0203 33.5023 10.109 35.4216C10.1963 37.338 10.5001 38.6466 10.9451 39.7908C11.4046 40.9744 12.0197 41.9797 13.0214 42.9796C14.0231 43.9794 15.0258 44.595 16.2101 45.0558C17.3558 45.5008 18.6631 45.8047 20.5794 45.8919C22.4997 45.9792 23.1123 46.0009 28.0007 46.0009C32.8891 46.0009 33.5027 45.9806 35.4221 45.8919C37.3385 45.8047 38.6471 45.5008 39.7913 45.0558C40.9749 44.595 41.9782 43.9798 42.9801 42.9796C43.9819 41.9793 44.5955 40.9744 45.0563 39.7908C45.5013 38.6466 45.8066 37.3379 45.8924 35.4216C45.9797 33.5008 46 32.8887 46 28.0002C46 23.1118 45.9797 22.4982 45.8924 20.5789C45.8052 18.6625 45.5013 17.3532 45.0563 16.2096C44.5955 15.026 43.9803 14.0227 42.9801 13.0209C41.9798 12.019 40.9749 11.4041 39.7928 10.9446C38.6471 10.4996 37.3383 10.1944 35.4235 10.1085C33.5042 10.0213 32.8906 9.99951 28.0022 9.99951C23.1137 9.99951 22.4997 10.0198 20.5794 10.1085Z" fill="white"/>
<defs>
<linearGradient id="paint0_linear_39_1110" x1="7.34329e-07" y1="56" x2="50.624" y2="6.72" gradientUnits="userSpaceOnUse">
<stop stop-color="#FEDA75"/>
<stop offset="0.270718" stop-color="#FA7E1E"/>
<stop offset="0.530387" stop-color="#D62976"/>
<stop offset="0.779006" stop-color="#962FBF"/>
<stop offset="1" stop-color="#4F5BD5"/>
</linearGradient>
</defs>
</svg>
