<svg width="56" height="56" viewBox="0 0 56 56" fill="none" xmlns="http://www.w3.org/2000/svg">
<rect width="56" height="56" rx="12" fill="#0077B5"/>
<path d="M45.4239 45.1095C43.2244 45.0574 41.0773 45.0574 38.8778 45.1095C38.4065 45.1095 38.3018 45.0053 38.3018 44.5364C38.3018 40.681 38.3018 36.7735 38.3018 32.9181C38.3018 32.0324 38.2494 31.1467 37.9876 30.3132C37.202 27.604 34.0599 26.6141 31.808 28.4376C30.6035 29.3754 30.1322 30.6778 30.1322 32.2408C30.1322 35.8878 30.1322 39.5348 30.1322 43.1818C30.1322 43.6507 30.0798 44.1196 30.1322 44.6406C30.1846 45.0574 29.9751 45.1615 29.6085 45.1095C27.3567 45.1095 25.1572 45.1095 22.9053 45.1095C22.4864 45.1095 22.3816 45.0053 22.3816 44.5885C22.434 41.3062 22.434 38.0239 22.434 34.6895C22.434 30.6258 22.434 26.562 22.3816 22.5503C22.3816 22.0814 22.4864 21.9772 22.9053 21.9772C25.1572 21.9772 27.3567 21.9772 29.6085 21.9772C30.0275 21.9772 30.1322 22.0814 30.1322 22.4982C30.1322 23.3318 30.1322 24.1654 30.1322 25.1553C30.2893 24.999 30.3417 24.9469 30.3941 24.8948C32.4365 21.9251 35.3167 21.0915 38.7207 21.6125C42.6484 22.2377 45.1621 24.9469 45.7905 29.1149C45.9476 30.1048 46 31.0946 46 32.0845C46 36.2525 46 40.3684 46 44.5364C46 44.9532 45.8953 45.1095 45.4239 45.1095Z" fill="white"/>
<path d="M18.1934 33.5434C18.1934 37.1904 18.1934 40.8374 18.1934 44.4843C18.1934 44.9532 18.0887 45.1095 17.6173 45.1095C15.4179 45.0574 13.2184 45.1095 11.0189 45.1095C10.5999 45.1095 10.4952 45.0053 10.4952 44.5885C10.4952 37.2425 10.4952 29.8443 10.4952 22.4983C10.4952 22.1336 10.5999 21.9773 11.0189 21.9773C13.2707 21.9773 15.5226 21.9773 17.7745 21.9773C18.2458 21.9773 18.2981 22.1336 18.2981 22.5504C18.1934 26.1974 18.1934 29.8443 18.1934 33.5434Z" fill="white"/>
<path d="M18.5612 15.9337C18.0375 18.0176 15.8903 19.2159 13.429 18.7991C10.8106 18.3823 9.34422 15.8295 10.2869 13.3287C10.9153 11.7657 12.434 10.8279 14.3716 10.88C17.3043 10.8279 19.2419 13.1724 18.5612 15.9337Z" fill="white"/>
</svg>
