<svg width="56" height="56" viewBox="0 0 56 56" fill="none" xmlns="http://www.w3.org/2000/svg">
<rect width="56" height="56" rx="12" fill="#1ED760"/>
<path d="M36.4255 16.4286H41.6101V21.5714H36.4255V16.4286ZM36.4255 24.1429H41.6101V29.2857H36.4255V24.1429ZM28.6485 16.4286H33.8331V21.5714H28.6485V16.4286ZM28.6485 24.1429H33.8331V29.2857H28.6485V24.1429Z" fill="white"/>
<path d="M25.408 40.8571C26.4818 40.8571 27.3523 39.9937 27.3523 38.9286C27.3523 37.8635 26.4818 37 25.408 37C24.3343 37 23.4638 37.8635 23.4638 38.9286C23.4638 39.9937 24.3343 40.8571 25.408 40.8571Z" fill="white"/>
<path d="M33.8331 46H16.983C16.2956 45.9993 15.6367 45.7282 15.1507 45.2461C14.6647 44.764 14.3913 44.1103 14.3906 43.4286V12.5714C14.3913 11.8897 14.6647 11.236 15.1507 10.7539C15.6367 10.2718 16.2956 10.0007 16.983 10H33.8331V12.5714H16.983V43.4286H33.8331V33.1429H36.4255V43.4286C36.4248 44.1103 36.1514 44.764 35.6654 45.2461C35.1794 45.7282 34.5205 45.9993 33.8331 46Z" fill="white"/>
</svg>
