<svg width="56" height="56" viewBox="0 0 56 56" fill="none" xmlns="http://www.w3.org/2000/svg">
<rect width="56" height="56" rx="12" fill="#EE8208"/>
<path d="M27.9992 15.4452C30.1431 15.4452 31.887 17.1707 31.887 19.292C31.887 21.4116 30.1426 23.1371 27.9992 23.1371C25.8567 23.1371 24.1124 21.4116 24.1124 19.292C24.1119 17.1703 25.8571 15.4452 27.9992 15.4452ZM27.9992 28.5796C33.1778 28.5796 37.3891 24.4139 37.3891 19.292C37.3891 14.1675 33.1782 10 27.9992 10C22.8211 10 18.6093 14.1679 18.6093 19.292C18.6093 24.4139 22.8211 28.5796 27.9992 28.5796ZM31.798 36.1581C33.7296 35.7228 35.573 34.9676 37.2502 33.9243C37.8677 33.5399 38.3055 32.9285 38.4674 32.2247C38.6294 31.5209 38.5021 30.7823 38.1136 30.1713C37.9215 29.8685 37.6709 29.6061 37.3762 29.3992C37.0815 29.1922 36.7485 29.0448 36.3962 28.9654C36.0439 28.8859 35.6792 28.8759 35.323 28.936C34.9668 28.9961 34.6261 29.1251 34.3203 29.3156C30.4734 31.7087 25.5223 31.7069 21.6786 29.3156C21.3729 29.1251 21.0322 28.996 20.676 28.9359C20.3198 28.8758 19.9551 28.8857 19.6029 28.9652C19.2506 29.0447 18.9176 29.1921 18.6229 29.3991C18.3283 29.606 18.0778 29.8684 17.8857 30.1713C17.4971 30.7821 17.3696 31.5206 17.5313 32.2244C17.693 32.9282 18.1305 33.5397 18.7478 33.9243C20.4249 34.9672 22.2679 35.7224 24.1991 36.1581L18.95 41.3529C18.4342 41.8635 18.1444 42.556 18.1446 43.278C18.1447 43.9999 18.4347 44.6923 18.9507 45.2027C19.4667 45.7131 20.1665 45.9998 20.8962 45.9997C21.6258 45.9995 22.3255 45.7126 22.8413 45.202L27.9983 40.0984L33.1584 45.2025C33.4136 45.4553 33.7166 45.6559 34.0501 45.7927C34.3837 45.9296 34.7412 46 35.1023 46C35.4634 46 35.8209 45.9296 36.1545 45.7927C36.488 45.6559 36.791 45.4553 37.0462 45.2025C37.3021 44.95 37.5051 44.6501 37.6436 44.3199C37.7822 43.9897 37.8535 43.6357 37.8535 43.2782C37.8535 42.9206 37.7822 42.5666 37.6436 42.2364C37.5051 41.9062 37.3021 41.6063 37.0462 41.3538L31.798 36.1581Z" fill="white"/>
</svg>
