<svg width="56" height="56" viewBox="0 0 56 56" fill="none" xmlns="http://www.w3.org/2000/svg">
<rect width="56" height="56" rx="12" fill="#419FD9"/>
<path fill-rule="evenodd" clip-rule="evenodd" d="M37.3279 42.6817C39.4847 43.5884 40.2935 41.6887 40.2935 41.6887L46 14.1435C45.9551 12.287 43.3489 13.4096 43.3489 13.4096L11.4014 25.4552C11.4014 25.4552 9.87362 25.9733 10.0084 26.8799C10.1432 27.7866 11.3564 28.2183 11.3564 28.2183L19.3995 30.8088C19.3995 30.8088 21.8259 38.4506 22.3201 39.9186C22.7695 41.3433 23.1739 41.3865 23.1739 41.3865C23.6232 41.5592 24.0276 41.257 24.0276 41.257L29.2399 36.7237L37.3279 42.6817ZM38.7208 19.0223C38.7208 19.0223 39.8441 18.3747 39.7992 19.0223C39.7992 19.0223 39.9789 19.1086 39.3948 19.7131C38.8556 20.2312 26.1395 31.1974 24.432 32.6654C24.2972 32.7517 24.2073 32.8812 24.2073 33.0539L23.7131 37.1123C23.6232 37.544 23.0391 37.5872 22.9043 37.1987L20.7924 30.5498C20.7025 30.2908 20.7924 29.9885 21.062 29.8158L38.7208 19.0223Z" fill="white"/>
</svg>
