<svg width="56" height="56" viewBox="0 0 56 56" fill="none" xmlns="http://www.w3.org/2000/svg">
<rect width="56" height="56" rx="12" fill="#FF1351"/>
<path d="M45.5614 20.8674V27.6596C45.5614 28.0199 45.4191 28.3654 45.1658 28.6202C44.9124 28.8749 44.5688 29.018 44.2106 29.018C41.3888 29.0255 38.6074 28.3437 36.1055 27.0313V33.0933C36.1058 35.5484 35.4097 37.9527 34.0988 40.0239C32.788 42.0952 30.9168 43.7474 28.7049 44.7867C26.493 45.826 24.0322 46.2092 21.6113 45.8914C19.1905 45.5736 16.91 44.568 15.0375 42.9925C13.165 41.4171 11.7783 39.3372 11.0401 36.9969C10.3019 34.6567 10.2429 32.1533 10.8699 29.7805C11.4969 27.4078 12.784 25.2641 14.5801 23.6011C16.3761 21.9381 18.6066 20.8249 21.0098 20.392C21.2026 20.3572 21.4007 20.365 21.5902 20.4148C21.7797 20.4647 21.9562 20.5554 22.1074 20.6807C22.2632 20.8072 22.3883 20.9677 22.4732 21.1502C22.558 21.3326 22.6004 21.5321 22.5971 21.7334V28.7973C22.5978 29.0545 22.5249 29.3065 22.3872 29.5233C22.2495 29.74 22.0527 29.9124 21.8203 30.0199C21.2752 30.281 20.8096 30.6843 20.4721 31.1878C20.1346 31.6913 19.9376 32.2766 19.9014 32.8827C19.8653 33.4889 19.9914 34.0936 20.2667 34.6341C20.542 35.1745 20.9563 35.6309 21.4665 35.9556C21.9767 36.2803 22.5642 36.4615 23.1677 36.4804C23.7713 36.4992 24.3688 36.355 24.8981 36.0627C25.4273 35.7704 25.869 35.3408 26.177 34.8185C26.4851 34.2963 26.6483 33.7005 26.6496 33.0933V11.3584C26.6496 10.9982 26.7919 10.6526 27.0452 10.3979C27.2986 10.1431 27.6422 10 28.0004 10H34.7547C35.1129 10 35.4565 10.1431 35.7098 10.3979C35.9632 10.6526 36.1055 10.9982 36.1055 11.3584C36.1055 13.5201 36.9594 15.5932 38.4794 17.1218C39.9994 18.6503 42.061 19.509 44.2106 19.509C44.5688 19.509 44.9124 19.6521 45.1658 19.9069C45.4191 20.1616 45.5614 20.5072 45.5614 20.8674Z" fill="white"/>
</svg>
