<svg width="56" height="56" viewBox="0 0 56 56" fill="none" xmlns="http://www.w3.org/2000/svg">
<rect width="56" height="56" rx="12" fill="#1DA1F2"/>
<path d="M42.3717 20.7444C42.3717 21.0711 42.3717 21.3977 42.3717 21.6776C42.3717 31.3362 34.9267 42.4878 21.356 42.4878C17.1623 42.4878 13.2984 41.2747 10 39.2216C10.5654 39.2683 11.178 39.315 11.7435 39.315C15.1832 39.315 18.3874 38.1485 20.9319 36.1888C17.6806 36.1421 14.9476 33.9958 14.0524 31.1029C14.5236 31.1962 14.9476 31.2429 15.466 31.2429C16.1257 31.2429 16.7853 31.1495 17.3979 30.9629C14.0052 30.3097 11.4607 27.3701 11.4607 23.824C11.4607 23.7773 11.4607 23.7773 11.4607 23.7307C12.4503 24.2906 13.5812 24.6172 14.8063 24.6639C12.8272 23.3574 11.5079 21.1177 11.5079 18.5514C11.5079 17.1983 11.8848 15.9385 12.4974 14.8653C16.1257 19.298 21.5916 22.1909 27.7173 22.5175C27.5759 22.0043 27.5288 21.3977 27.5288 20.8378C27.5288 16.7784 30.8272 13.5122 34.9267 13.5122C37.0471 13.5122 38.9791 14.3987 40.2984 15.7985C41.9948 15.4719 43.5497 14.8653 45.0105 14.0255C44.445 15.7519 43.267 17.1517 41.7592 18.0848C43.267 17.8982 44.6806 17.5249 46 16.9184C45.0576 18.4115 43.8325 19.7179 42.3717 20.7444Z" fill="white"/>
</svg>
