<svg width="56" height="56" viewBox="0 0 56 56" fill="none" xmlns="http://www.w3.org/2000/svg">
<rect width="56" height="56" rx="12" fill="#5181B8"/>
<path fill-rule="evenodd" clip-rule="evenodd" d="M45.174 18.6627C45.4244 17.8198 45.174 17.2002 43.9829 17.2002H40.0445C39.043 17.2002 38.5817 17.7354 38.3313 18.3257C38.3313 18.3257 36.3283 23.2576 33.491 26.4612C32.5731 27.3886 32.1559 27.6833 31.6551 27.6833C31.4047 27.6833 31.0424 27.3886 31.0424 26.5456V18.6627C31.0424 17.651 30.7518 17.2002 29.9172 17.2002H23.7282C23.1026 17.2002 22.7262 17.6697 22.7262 18.1148C22.7262 19.074 24.1446 19.2951 24.2908 21.9928V27.8524C24.2908 29.137 24.0613 29.3701 23.5605 29.3701C22.2254 29.3701 18.9779 24.4157 17.0515 18.7472C16.6739 17.6453 16.2953 17.2002 15.2887 17.2002H11.3503C10.2251 17.2002 10 17.7354 10 18.3257C10 19.3795 11.3354 24.6067 16.2171 31.5199C19.4719 36.2406 24.0568 38.8002 28.2293 38.8002C30.733 38.8002 31.0424 38.2318 31.0424 37.2527V33.6844C31.0424 32.5476 31.2796 32.3208 32.072 32.3208C32.6566 32.3208 33.6578 32.6158 35.9947 34.892C38.6649 37.5895 39.1049 38.8002 40.6071 38.8002H44.5456C45.6708 38.8002 46.2335 38.2318 45.9088 37.11C45.5538 35.9919 44.2789 34.3702 42.587 32.4472C41.6691 31.351 40.2921 30.1707 39.8752 29.5807C39.2909 28.8218 39.4577 28.4848 39.8752 27.8106C39.8752 27.8106 44.6733 20.9816 45.174 18.663V18.6627Z" fill="white"/>
</svg>
