<svg width="56" height="56" viewBox="0 0 56 56" fill="none" xmlns="http://www.w3.org/2000/svg">
<rect width="56" height="56" rx="12" fill="#001935"/>
<path d="M46 35.7852V13.5413C46 12.3179 44.9875 11.3169 43.75 11.3169H12.25C11.0125 11.3169 10 12.3179 10 13.5413V35.7852C10 37.0086 11.0125 38.0096 12.25 38.0096H43.75C44.9875 38.0096 46 37.0086 46 35.7852ZM28 17.9901C33.175 17.9901 37.9 20.5259 41.5 24.6632C37.9 28.8006 33.175 31.3364 28 31.3364C22.825 31.3364 18.1 28.8006 14.5 24.6632C18.1 20.5259 22.825 17.9901 28 17.9901ZM32.5 24.6632C32.5 22.2164 30.475 20.2145 28 20.2145C25.525 20.2145 23.5 22.2164 23.5 24.6632C23.5 27.1101 25.525 29.112 28 29.112C30.475 29.112 32.5 27.1101 32.5 24.6632ZM37 42.4584H43.75V44.6827H12.25V42.4584H19V40.234H37V42.4584Z" fill="white"/>
</svg>
