<svg width="56" height="56" viewBox="0 0 56 56" fill="none" xmlns="http://www.w3.org/2000/svg">
<rect width="56" height="56" rx="12" fill="#D61E3B"/>
<path d="M35.5732 10H30.4275C25.2819 10 20.0462 13.8569 20.0462 22.3679C19.9386 24.3406 20.3791 26.3046 21.3191 28.0427C22.259 29.7807 23.6617 31.2251 25.3719 32.2159L19.0042 43.5938C18.8582 43.8411 18.7812 44.1231 18.7812 44.4102C18.7812 44.6973 18.8582 44.9792 19.0042 45.2266C19.1362 45.4531 19.3234 45.6425 19.5483 45.7774C19.7732 45.9122 20.0285 45.9881 20.2906 45.998H23.4938C23.8188 46.0138 24.1408 45.9299 24.4168 45.7575C24.6927 45.5852 24.9093 45.3326 25.0375 45.0337L30.9421 33.463H31.3795V44.5452C31.3809 44.7432 31.4225 44.9389 31.5018 45.1205C31.581 45.302 31.6963 45.4656 31.8406 45.6014C31.9848 45.7372 32.1552 45.8423 32.3412 45.9105C32.5273 45.9786 32.7253 46.0084 32.9232 45.998H35.7275C36.1055 46.012 36.4737 45.877 36.7529 45.622C37.0321 45.367 37.1998 45.0126 37.2198 44.6352V11.5685C37.2249 11.3676 37.1904 11.1676 37.1181 10.98C37.0459 10.7924 36.9374 10.6209 36.7988 10.4752C36.6603 10.3296 36.4943 10.2126 36.3105 10.1311C36.1267 10.0495 35.9286 10.005 35.7275 10H35.5732ZM31.4824 28.359H30.7234C27.7647 28.359 26.0151 25.9548 26.0151 21.9308C26.0151 16.9168 28.2406 15.1297 30.3117 15.1297H31.521L31.4824 28.359Z" fill="white"/>
</svg>
