<svg width="56" height="56" viewBox="0 0 56 56" fill="none" xmlns="http://www.w3.org/2000/svg">
<rect width="56" height="56" rx="12" fill="#FF0000"/>
<path fill-rule="evenodd" clip-rule="evenodd" d="M42.0855 16.1707C43.6275 16.5858 44.8434 17.8013 45.2585 19.343C46.0295 22.1594 45.9999 28.0296 45.9999 28.0296C45.9999 28.0296 45.9999 33.87 45.2585 36.6865C44.8434 38.2281 43.6275 39.4437 42.0855 39.8587C39.2684 40.5999 27.9999 40.5999 27.9999 40.5999C27.9999 40.5999 16.7611 40.5999 13.9143 39.8291C12.3723 39.414 11.1565 38.1985 10.7413 36.6568C10 33.87 10 27.9999 10 27.9999C10 27.9999 10 22.1594 10.7413 19.343C11.1565 17.8013 12.402 16.5561 13.9143 16.1411C16.7314 15.3999 27.9999 15.3999 27.9999 15.3999C27.9999 15.3999 39.2684 15.3999 42.0855 16.1707ZM33.7847 28L24.4141 33.3957V22.6042L33.7847 28Z" fill="white"/>
</svg>
