<svg width="64" height="64" viewBox="0 0 64 64" fill="none" xmlns="http://www.w3.org/2000/svg">
<path d="M48.6605 16.4057C45.5126 14.9207 42.1824 13.8655 38.7579 13.2681C38.3313 14.0456 37.8329 15.0914 37.4892 15.9234C33.797 15.3637 30.1387 15.3637 26.5143 15.9234C26.1708 15.0916 25.6612 14.0456 25.2307 13.2681C21.8028 13.8658 18.4697 14.9236 15.3204 16.4134C9.05336 25.9621 7.35442 35.2732 8.2038 44.4526C12.3605 47.5823 16.3887 49.4836 20.3491 50.7277C21.3334 49.363 22.2034 47.9182 22.9503 46.4081C21.5283 45.8623 20.1575 45.1897 18.8542 44.3982C19.1972 44.1419 19.5321 43.8747 19.8584 43.5972C27.7563 47.3218 36.3378 47.3218 44.1415 43.5972C44.4693 43.8729 44.8041 44.14 45.1456 44.3982C43.8401 45.1918 42.4668 45.8658 41.042 46.4121C41.7931 47.9283 42.6616 49.3745 43.6432 50.7315C47.6073 49.4875 51.6393 47.5863 55.796 44.4526C56.7927 33.8115 54.0935 24.5856 48.6605 16.4055V16.4057ZM24.0264 38.8075C21.6554 38.8075 19.711 36.5758 19.711 33.8582C19.711 31.1406 21.614 28.9052 24.0264 28.9052C26.4389 28.9052 28.3831 31.1367 28.3417 33.8582C28.3454 36.5758 26.4389 38.8075 24.0264 38.8075ZM39.9734 38.8075C37.6025 38.8075 35.6583 36.5758 35.6583 33.8582C35.6583 31.1406 37.561 28.9052 39.9734 28.9052C42.386 28.9052 44.3302 31.1367 44.2887 33.8582C44.2887 36.5758 42.386 38.8075 39.9734 38.8075Z" fill="#5865F2"/>
</svg>
