<svg width="64" height="64" viewBox="0 0 64 64" fill="none" xmlns="http://www.w3.org/2000/svg">
<path d="M24.0019 32C24.0019 27.5817 27.5827 23.999 32.001 23.999C36.4192 23.999 40.0019 27.5817 40.0019 32C40.0019 36.4183 36.4192 40.0009 32.001 40.0009C27.5827 40.0009 24.0019 36.4183 24.0019 32ZM19.6768 32C19.6768 38.8067 25.1943 44.3242 32.001 44.3242C38.8076 44.3242 44.3252 38.8067 44.3252 32C44.3252 25.1933 38.8076 19.6758 32.001 19.6758C25.1943 19.6758 19.6768 25.1933 19.6768 32ZM41.9329 19.1871C41.9327 19.7568 42.1014 20.3137 42.4177 20.7874C42.734 21.2612 43.1836 21.6305 43.7098 21.8487C44.236 22.0669 44.8151 22.1242 45.3738 22.0133C45.9325 21.9024 46.4458 21.6283 46.8488 21.2256C47.2517 20.823 47.5263 20.3099 47.6376 19.7513C47.749 19.1926 47.6922 18.6135 47.4744 18.0872C47.2566 17.5608 46.8876 17.1108 46.4141 16.7942C45.9406 16.4775 45.3838 16.3084 44.8142 16.3082H44.8131C44.0495 16.3085 43.3173 16.6119 42.7773 17.1517C42.2373 17.6915 41.9336 18.4236 41.9329 19.1871ZM22.3046 51.5362C19.9646 51.4296 18.6927 51.0398 17.8475 50.7106C16.7269 50.2743 15.9274 49.7547 15.0868 48.9153C14.2462 48.0758 13.7259 47.2771 13.2915 46.1565C12.9621 45.3117 12.5723 44.0394 12.4659 41.6994C12.3495 39.1696 12.3263 38.4096 12.3263 32.0002C12.3263 25.5908 12.3515 24.8329 12.4659 22.3009C12.5725 19.9609 12.9651 18.6912 13.2915 17.8438C13.7278 16.7233 14.2474 15.9238 15.0868 15.0831C15.9263 14.2425 16.725 13.7222 17.8475 13.2879C18.6923 12.9584 19.9646 12.5686 22.3046 12.4622C24.8345 12.3459 25.5944 12.3227 32.001 12.3227C38.4075 12.3227 39.1682 12.3478 41.7002 12.4622C44.0402 12.5688 45.31 12.9615 46.1573 13.2879C47.2779 13.7222 48.0774 14.2437 48.918 15.0831C49.7586 15.9226 50.277 16.7233 50.7133 17.8438C51.0427 18.6887 51.4325 19.9609 51.5389 22.3009C51.6553 24.8329 51.6785 25.5908 51.6785 32.0002C51.6785 38.4096 51.6553 39.1674 51.5389 41.6994C51.4323 44.0394 51.0406 45.3113 50.7133 46.1565C50.277 47.2771 49.7574 48.0766 48.918 48.9153C48.0785 49.754 47.2779 50.2743 46.1573 50.7106C45.3125 51.04 44.0402 51.4298 41.7002 51.5362C39.1703 51.6525 38.4104 51.6758 32.001 51.6758C25.5916 51.6758 24.8337 51.6525 22.3046 51.5362ZM22.1058 8.14437C19.5508 8.26073 17.8049 8.66587 16.2801 9.25917C14.7011 9.87187 13.3643 10.6939 12.0285 12.0275C10.6927 13.3612 9.87284 14.7001 9.26015 16.2792C8.66684 17.8049 8.26171 19.5498 8.14535 22.1049C8.02707 24.6639 8 25.4821 8 32C8 38.5179 8.02707 39.336 8.14535 41.8951C8.26171 44.4503 8.66684 46.1951 9.26015 47.7208C9.87284 49.2989 10.6929 50.6393 12.0285 51.9724C13.3641 53.3055 14.7011 54.1264 16.2801 54.7408C17.8078 55.3341 19.5508 55.7392 22.1058 55.8556C24.6663 55.972 25.4831 56.0009 32.001 56.0009C38.5189 56.0009 39.337 55.9739 41.8961 55.8556C44.4513 55.7392 46.1961 55.3341 47.7218 54.7408C49.2999 54.1264 50.6376 53.3061 51.9734 51.9724C53.3092 50.6387 54.1274 49.2989 54.7418 47.7208C55.3351 46.1951 55.7421 44.4501 55.8566 41.8951C55.9729 39.3341 56 38.5179 56 32C56 25.4821 55.9729 24.6639 55.8566 22.1049C55.7402 19.5496 55.3351 17.8039 54.7418 16.2792C54.1274 14.7011 53.3071 13.3633 51.9734 12.0275C50.6397 10.6917 49.2999 9.87187 47.7237 9.25917C46.1961 8.66587 44.4511 8.25881 41.898 8.14437C39.3389 8.02802 38.5208 7.99902 32.0029 7.99902C25.485 7.99902 24.6663 8.0261 22.1058 8.14437Z" fill="url(#paint0_linear_39_798)"/>
<defs>
<linearGradient id="paint0_linear_39_798" x1="8" y1="56.0009" x2="51.3937" y2="13.761" gradientUnits="userSpaceOnUse">
<stop stop-color="#FEDA75"/>
<stop offset="0.270718" stop-color="#FA7E1E"/>
<stop offset="0.530387" stop-color="#D62976"/>
<stop offset="0.779006" stop-color="#962FBF"/>
<stop offset="1" stop-color="#4F5BD5"/>
</linearGradient>
</defs>
</svg>
