<svg width="64" height="64" viewBox="0 0 64 64" fill="none" xmlns="http://www.w3.org/2000/svg">
<path d="M55.2319 54.8129C52.2993 54.7435 49.4364 54.7435 46.5038 54.8129C45.8753 54.8129 45.7357 54.674 45.7357 54.0488C45.7357 48.9083 45.7357 43.6983 45.7357 38.5578C45.7357 37.3769 45.6659 36.196 45.3167 35.0845C44.2694 31.4723 40.0798 30.1524 37.0774 32.5837C35.4714 33.8341 34.843 35.5708 34.843 37.6548C34.843 42.5174 34.843 47.38 34.843 52.2427C34.843 52.8679 34.7731 53.4931 34.843 54.1877C34.9128 54.7435 34.6335 54.8824 34.1447 54.8129C31.1422 54.8129 28.2096 54.8129 25.2071 54.8129C24.6485 54.8129 24.5088 54.674 24.5088 54.1183C24.5787 49.7419 24.5787 45.3655 24.5787 40.9197C24.5787 35.5013 24.5787 30.083 24.5088 24.7341C24.5088 24.1089 24.6485 23.9699 25.2071 23.9699C28.2096 23.9699 31.1422 23.9699 34.1447 23.9699C34.7033 23.9699 34.843 24.1089 34.843 24.6646C34.843 25.7761 34.843 26.8875 34.843 28.2074C35.0524 27.999 35.1223 27.9295 35.1921 27.86C37.9153 23.9005 41.7557 22.789 46.2943 23.4837C51.5312 24.3173 54.8828 27.9295 55.7207 33.4868C55.9302 34.8067 56 36.1265 56 37.4464C56 43.0037 56 48.4915 56 54.0488C56 54.6045 55.8604 54.8129 55.2319 54.8129Z" fill="#0077B5"/>
<path d="M18.9245 39.3915C18.9245 44.2542 18.9245 49.1168 18.9245 53.9794C18.9245 54.6046 18.7849 54.813 18.1565 54.813C15.2238 54.7436 12.2911 54.813 9.35849 54.813C8.79989 54.813 8.66024 54.6741 8.66024 54.1184C8.66024 44.3236 8.66024 34.4594 8.66024 24.6647C8.66024 24.1785 8.79989 23.9701 9.35849 23.9701C12.361 23.9701 15.3635 23.9701 18.3659 23.9701C18.9944 23.9701 19.0642 24.1785 19.0642 24.7342C18.9245 29.5968 18.9245 34.4594 18.9245 39.3915Z" fill="#0077B5"/>
<path d="M19.4149 15.9119C18.7166 18.6905 15.8538 20.2882 12.572 19.7325C9.08073 19.1768 7.12563 15.7729 8.38248 12.4386C9.22039 10.3546 11.2453 9.10418 13.8288 9.17365C17.7391 9.10418 20.3226 12.2302 19.4149 15.9119Z" fill="#0077B5"/>
</svg>
