<svg width="64" height="64" viewBox="0 0 64 64" fill="none" xmlns="http://www.w3.org/2000/svg">
<path d="M43.2333 16.5714H50.1462V23.4286H43.2333V16.5714ZM43.2333 26.8571H50.1462V33.7143H43.2333V26.8571ZM32.864 16.5714H39.7769V23.4286H32.864V16.5714ZM32.864 26.8571H39.7769V33.7143H32.864V26.8571Z" fill="#1ED760"/>
<path d="M28.5434 49.1429C29.9751 49.1429 31.1357 47.9916 31.1357 46.5714C31.1357 45.1513 29.9751 44 28.5434 44C27.1117 44 25.9511 45.1513 25.9511 46.5714C25.9511 47.9916 27.1117 49.1429 28.5434 49.1429Z" fill="#1ED760"/>
<path d="M39.7769 56H17.31C16.3935 55.9991 15.5149 55.6376 14.8669 54.9948C14.2189 54.352 13.8544 53.4805 13.8535 52.5714V11.4286C13.8544 10.5195 14.2189 9.64799 14.8669 9.00521C15.5149 8.36242 16.3935 8.00091 17.31 8H39.7769V11.4286H17.31V52.5714H39.7769V38.8571H43.2333V52.5714C43.2324 53.4805 42.8679 54.352 42.2199 54.9948C41.5719 55.6376 40.6933 55.9991 39.7769 56Z" fill="#1ED760"/>
</svg>
