<svg width="64" height="64" viewBox="0 0 64 64" fill="none" xmlns="http://www.w3.org/2000/svg">
<path d="M31.9996 15.2602C34.8581 15.2602 37.1833 17.5609 37.1833 20.3894C37.1833 23.2154 34.8575 25.5161 31.9996 25.5161C29.1429 25.5161 26.8172 23.2154 26.8172 20.3894C26.8166 17.5604 29.1435 15.2602 31.9996 15.2602ZM31.9996 32.7728C38.9043 32.7728 44.5195 27.2185 44.5195 20.3894C44.5195 13.5567 38.9049 8 31.9996 8C25.0955 8 19.4798 13.5573 19.4798 20.3894C19.4798 27.2185 25.0955 32.7728 31.9996 32.7728ZM37.0646 42.8775C39.6401 42.2971 42.098 41.2901 44.3343 39.8991C45.1576 39.3865 45.7414 38.5714 45.9572 37.633C46.1731 36.6945 46.0034 35.7097 45.4855 34.895C45.2293 34.4913 44.8952 34.1415 44.5023 33.8656C44.1094 33.5897 43.6653 33.3931 43.1956 33.2871C42.7258 33.1812 42.2396 33.1679 41.7646 33.248C41.2897 33.3282 40.8354 33.5002 40.4277 33.7542C35.2986 36.9449 28.6971 36.9426 23.5721 33.7542C23.1645 33.5001 22.7102 33.3281 22.2353 33.2479C21.7604 33.1677 21.2742 33.181 20.8045 33.287C20.3347 33.3929 19.8907 33.5895 19.4979 33.8654C19.105 34.1414 18.771 34.4912 18.5149 34.895C17.9968 35.7095 17.8268 36.6942 18.0424 37.6326C18.2579 38.571 18.8414 39.3862 19.6643 39.8991C21.9005 41.2896 24.3578 42.2966 26.9328 42.8775L19.934 49.8039C19.2462 50.4847 18.8599 51.408 18.8601 52.3706C18.8602 53.3332 19.2469 54.2564 19.9349 54.9369C20.6229 55.6175 21.556 55.9997 22.5289 55.9995C23.5017 55.9994 24.4346 55.6168 25.1224 54.936L31.9984 48.1312L38.8786 54.9366C39.2188 55.2737 39.6228 55.5412 40.0675 55.7236C40.5122 55.9061 40.989 56 41.4704 56C41.9518 56 42.4286 55.9061 42.8733 55.7236C43.318 55.5412 43.722 55.2737 44.0622 54.9366C44.4034 54.6001 44.6741 54.2002 44.8588 53.7599C45.0435 53.3196 45.1386 52.8476 45.1386 52.3709C45.1386 51.8942 45.0435 51.4221 44.8588 50.9819C44.6741 50.5416 44.4034 50.1417 44.0622 49.8051L37.0646 42.8775Z" fill="#EE8208"/>
</svg>
