<svg width="64" height="64" viewBox="0 0 64 64" fill="none" xmlns="http://www.w3.org/2000/svg">
<path fill-rule="evenodd" clip-rule="evenodd" d="M44.4372 51.5756C47.3129 52.7845 48.3913 50.2516 48.3913 50.2516L56 13.5247C55.9401 11.0494 52.4652 12.5461 52.4652 12.5461L9.86847 28.6069C9.86847 28.6069 7.8315 29.2977 8.01123 30.5066C8.19096 31.7155 9.80856 32.2911 9.80856 32.2911L20.5326 35.7451C20.5326 35.7451 23.7678 45.9342 24.4269 47.8914C25.026 49.7911 25.5652 49.8486 25.5652 49.8486C26.1643 50.0789 26.7035 49.6759 26.7035 49.6759L33.6532 43.6316L44.4372 51.5756ZM46.2944 20.0297C46.2944 20.0297 47.7921 19.1662 47.7322 20.0297C47.7322 20.0297 47.9719 20.1448 47.193 20.9508C46.4741 21.6416 29.5193 36.2632 27.2427 38.2205C27.0629 38.3356 26.9431 38.5083 26.9431 38.7386L26.2841 44.1497C26.1643 44.7254 25.3854 44.783 25.2057 44.2649L22.3899 35.3997C22.27 35.0544 22.3899 34.6514 22.7493 34.4211L46.2944 20.0297Z" fill="#419FD9"/>
</svg>
