<svg width="64" height="64" viewBox="0 0 64 64" fill="none" xmlns="http://www.w3.org/2000/svg">
<path d="M55.4152 22.4899V31.5461C55.4152 32.0265 55.2254 32.4872 54.8877 32.8269C54.5499 33.1665 54.0918 33.3574 53.6141 33.3574C49.8517 33.3673 46.1432 32.4583 42.8073 30.7084V38.7911C42.8077 42.0646 41.8796 45.2703 40.1317 48.0319C38.3839 50.7936 35.889 52.9965 32.9399 54.3822C29.9907 55.768 26.7096 56.279 23.4818 55.8552C20.2539 55.4315 17.2133 54.0906 14.7167 51.99C12.2201 49.8894 10.3711 47.1162 9.38685 43.9959C8.40258 40.8756 8.32384 37.5378 9.15987 34.3741C9.9959 31.2104 11.712 28.3521 14.1067 26.1348C16.5015 23.9175 19.4755 22.4332 22.6797 21.856C22.9368 21.8096 23.2009 21.82 23.4536 21.8865C23.7063 21.9529 23.9416 22.0739 24.1432 22.2409C24.351 22.4095 24.5178 22.6236 24.6309 22.8669C24.744 23.1101 24.8005 23.3761 24.7961 23.6446V33.063C24.797 33.406 24.6999 33.742 24.5163 34.031C24.3327 34.3201 24.0703 34.5499 23.7604 34.6932C23.0336 35.0413 22.4128 35.579 21.9628 36.2504C21.5128 36.9217 21.2501 37.7021 21.2019 38.5103C21.1537 39.3185 21.3219 40.1249 21.6889 40.8455C22.0559 41.5661 22.6084 42.1745 23.2887 42.6075C23.969 43.0404 24.7523 43.2821 25.557 43.3072C26.3617 43.3323 27.1584 43.14 27.8641 42.7503C28.5698 42.3606 29.1586 41.7877 29.5694 41.0914C29.9801 40.395 30.1977 39.6007 30.1994 38.7911V9.81124C30.1994 9.33087 30.3892 8.87017 30.727 8.5305C31.0648 8.19083 31.5229 8 32.0006 8H41.0062C41.4839 8 41.942 8.19083 42.2798 8.5305C42.6176 8.87017 42.8073 9.33087 42.8073 9.81124C42.8073 12.6935 43.9459 15.4576 45.9725 17.4957C47.9992 19.5337 50.748 20.6787 53.6141 20.6787C54.0918 20.6787 54.5499 20.8695 54.8877 21.2092C55.2254 21.5489 55.4152 22.0096 55.4152 22.4899Z" fill="#FF1351"/>
</svg>
