<svg width="64" height="64" viewBox="0 0 64 64" fill="none" xmlns="http://www.w3.org/2000/svg">
<path d="M51.1623 22.3261C51.1623 22.7616 51.1623 23.1971 51.1623 23.5703C51.1623 36.4484 41.2356 51.3173 23.1414 51.3173C17.5497 51.3173 12.3979 49.6997 8 46.9624C8.75393 47.0246 9.57068 47.0868 10.3246 47.0868C14.911 47.0868 19.1832 45.5315 22.5759 42.9185C18.2408 42.8563 14.5969 39.9945 13.4031 36.1373C14.0314 36.2618 14.5969 36.324 15.288 36.324C16.1675 36.324 17.0471 36.1995 17.8639 35.9507C13.3403 35.0797 9.94764 31.1603 9.94764 26.4321C9.94764 26.3699 9.94764 26.3699 9.94764 26.3077C11.267 27.0543 12.7749 27.4898 14.4084 27.552C11.7696 25.81 10.0105 22.8238 10.0105 19.4021C10.0105 17.5979 10.5131 15.9182 11.3298 14.4873C16.1675 20.3975 23.4555 24.2547 31.623 24.6902C31.4346 24.0058 31.3717 23.1971 31.3717 22.4505C31.3717 17.038 35.7696 12.6831 41.2356 12.6831C44.0628 12.6831 46.6387 13.8651 48.3979 15.7315C50.6597 15.296 52.733 14.4873 54.6806 13.3674C53.9267 15.6693 52.356 17.5357 50.3455 18.78C52.356 18.5311 54.2408 18.0334 56 17.2246C54.7435 19.2154 53.1099 20.9574 51.1623 22.3261Z" fill="#1DA1F2"/>
</svg>
