<svg width="64" height="64" viewBox="0 0 64 64" fill="none" xmlns="http://www.w3.org/2000/svg">
<path fill-rule="evenodd" clip-rule="evenodd" d="M54.8987 19.5502C55.2325 18.4262 54.8987 17.6001 53.3106 17.6001H48.0594C46.724 17.6001 46.1089 18.3137 45.7751 19.1007C45.7751 19.1007 43.1044 25.6766 39.3213 29.9481C38.0974 31.1846 37.5411 31.5776 36.8735 31.5776C36.5397 31.5776 36.0566 31.1846 36.0566 30.0606V19.5502C36.0566 18.2011 35.6691 17.6001 34.5562 17.6001H26.3043C25.4701 17.6001 24.9682 18.2261 24.9682 18.8196C24.9682 20.0985 26.8594 20.3933 27.0544 23.9903V31.803C27.0544 33.5159 26.7484 33.8266 26.0807 33.8266C24.3006 33.8266 19.9705 27.2208 17.4019 19.6627C16.8986 18.1935 16.3937 17.6001 15.0516 17.6001H9.80042C8.30007 17.6001 8 18.3137 8 19.1007C8 20.5059 9.78054 27.4755 16.2894 36.693C20.6292 42.9873 26.7424 46.4001 32.3057 46.4001C35.644 46.4001 36.0566 45.6422 36.0566 44.3367V39.579C36.0566 38.0633 36.3728 37.7609 37.4294 37.7609C38.2088 37.7609 39.5437 38.1542 42.6596 41.1892C46.2199 44.7858 46.8066 46.4001 48.8095 46.4001H54.0608C55.5611 46.4001 56.3113 45.6422 55.8784 44.1465C55.4051 42.6557 53.7052 40.4934 51.4494 37.9295C50.2255 36.4679 48.3894 34.8941 47.8335 34.1074C47.0545 33.0956 47.2769 32.6462 47.8335 31.7473C47.8335 31.7473 54.231 22.642 54.8987 19.5505V19.5502Z" fill="#5181B8"/>
</svg>
