<svg width="64" height="64" viewBox="0 0 64 64" fill="none" xmlns="http://www.w3.org/2000/svg">
<path d="M56 42.3803V12.7217C56 11.0905 54.65 9.75586 53 9.75586H11C9.35 9.75586 8 11.0905 8 12.7217V42.3803C8 44.0115 9.35 45.3461 11 45.3461H53C54.65 45.3461 56 44.0115 56 42.3803ZM32 18.6534C38.9 18.6534 45.2 22.0345 50 27.551C45.2 33.0675 38.9 36.4485 32 36.4485C25.1 36.4485 18.8 33.0675 14 27.551C18.8 22.0345 25.1 18.6534 32 18.6534ZM38 27.551C38 24.2885 35.3 21.6193 32 21.6193C28.7 21.6193 26 24.2885 26 27.551C26 30.8134 28.7 33.4827 32 33.4827C35.3 33.4827 38 30.8134 38 27.551ZM44 51.2778H53V54.2437H11V51.2778H20V48.312H44V51.2778Z" fill="#001935"/>
</svg>
