<svg width="64" height="64" viewBox="0 0 64 64" fill="none" xmlns="http://www.w3.org/2000/svg">
<path d="M42.0963 8H35.2354C28.3745 8 21.3936 13.1426 21.3936 24.4905C21.2502 27.1208 21.8376 29.7395 23.0908 32.0569C24.344 34.3743 26.2143 36.3001 28.4946 37.6212L20.0043 52.7918C19.8097 53.1215 19.707 53.4974 19.707 53.8803C19.707 54.2631 19.8097 54.639 20.0043 54.9688C20.1803 55.2707 20.4299 55.5234 20.7297 55.7032C21.0296 55.883 21.3701 55.9841 21.7195 55.9973H25.9904C26.4237 56.0184 26.8531 55.9065 27.221 55.6767C27.5889 55.4469 27.8777 55.1102 28.0486 54.7116L35.9215 39.2839H36.5047V54.0603C36.5066 54.3243 36.5621 54.5853 36.6678 54.8273C36.7734 55.0693 36.9271 55.2875 37.1195 55.4685C37.3118 55.6495 37.5389 55.7897 37.787 55.8806C38.0351 55.9715 38.299 56.0112 38.5629 55.9973H42.3021C42.806 56.016 43.297 55.8359 43.6693 55.496C44.0415 55.1561 44.2651 54.6835 44.2917 54.1802V10.0913C44.2986 9.82341 44.2525 9.55678 44.1562 9.30667C44.0599 9.05656 43.9153 8.82786 43.7305 8.63365C43.5457 8.43943 43.3245 8.28351 43.0794 8.17479C42.8343 8.06606 42.5702 8.00667 42.3021 8H42.0963ZM36.6419 32.4786H35.6299C31.6849 32.4786 29.3522 29.2731 29.3522 23.9077C29.3522 17.2223 32.3195 14.8396 35.081 14.8396H36.6933L36.6419 32.4786Z" fill="#D61E3B"/>
</svg>
