<svg width="64" height="64" viewBox="0 0 64 64" fill="none" xmlns="http://www.w3.org/2000/svg">
<path fill-rule="evenodd" clip-rule="evenodd" d="M50.7807 16.228C52.8367 16.7814 54.4578 18.4021 55.0113 20.4576C56.0393 24.2129 55.9998 32.0397 55.9998 32.0397C55.9998 32.0397 55.9998 39.827 55.0113 43.5823C54.4578 45.6379 52.8367 47.2586 50.7807 47.812C47.0246 48.8002 31.9999 48.8002 31.9999 48.8002C31.9999 48.8002 17.0148 48.8002 13.2191 47.7724C11.1631 47.219 9.542 45.5983 8.98846 43.5428C8 39.827 8 32.0002 8 32.0002C8 32.0002 8 24.2129 8.98846 20.4576C9.542 18.4021 11.2026 16.7418 13.2191 16.1884C16.9753 15.2002 31.9999 15.2002 31.9999 15.2002C31.9999 15.2002 47.0246 15.2002 50.7807 16.228ZM39.71 32.0003L27.2158 39.1946V24.8059L39.71 32.0003Z" fill="#FF0000"/>
</svg>
