<svg width="40" height="40" viewBox="0 0 40 40" fill="none" xmlns="http://www.w3.org/2000/svg">
<path d="M19.6264 18.8679C20.8271 19.1863 23.4398 19.879 23.8952 18.0627C24.3598 16.2044 21.8214 15.6432 20.5786 15.3684C20.4377 15.3372 20.3135 15.3098 20.2122 15.2845L19.3344 18.792C19.418 18.8127 19.5163 18.8387 19.6264 18.8679Z" fill="white"/>
<path d="M18.2659 24.5151C19.7041 24.8939 22.8493 25.7225 23.3498 23.7211C23.862 21.6747 20.8123 20.9931 19.3244 20.6605C19.1583 20.6234 19.0115 20.5906 18.8915 20.5607L17.9233 24.4264C18.0216 24.4507 18.137 24.4811 18.2659 24.5151Z" fill="white"/>
<path fill-rule="evenodd" clip-rule="evenodd" d="M36 19.9998C36 28.8368 28.8366 36.0006 20 36.0006C11.1634 36.0006 4 28.8368 4 19.9998C4 11.1628 11.1634 3.99902 20 3.99902C28.8366 3.99902 36 11.1628 36 19.9998ZM23.8439 14.055C26.0696 14.8193 27.6977 15.9638 27.3783 18.0937C27.1463 19.6533 26.2785 20.4077 25.1255 20.6718C26.7074 21.4921 27.2465 23.049 26.7455 24.9316C25.7944 27.6407 23.5336 27.8688 20.5266 27.3026L19.7964 30.2148L18.0337 29.7766L18.7539 26.9034C18.2969 26.7904 17.8298 26.6693 17.3488 26.5403L16.6256 29.4275L14.865 28.9893L15.5941 26.0711L12.0437 25.1787L12.9195 23.1678C12.9195 23.1678 14.2192 23.511 14.2011 23.486C14.7003 23.609 14.9222 23.2849 15.0096 23.0698L16.9882 15.1654C17.0103 14.7923 16.8807 14.3221 16.1666 14.144C16.1937 14.125 14.8861 13.8269 14.8861 13.8269L15.3551 11.9511L18.9105 12.8284L19.6337 9.94321L21.3953 10.3814L20.6872 13.2096C21.1613 13.3166 21.6374 13.4257 22.1004 13.5407L22.8034 10.7305L24.5661 11.1687L23.8439 14.055Z" fill="white"/>
</svg>
