<svg width="40" height="40" viewBox="0 0 40 40" fill="none" xmlns="http://www.w3.org/2000/svg">
<path d="M24.3742 27.8632H15.625V12.1394H24.3742V27.8632Z" fill="white"/>
<path d="M16.1855 20C16.1855 16.8104 17.6789 13.9691 20.0046 12.1381C18.3039 10.7992 16.1575 10 13.8249 10C8.30262 10 3.82617 14.4771 3.82617 20C3.82617 25.5229 8.30262 30 13.8249 30C16.1575 30 18.3039 29.2008 20.0046 27.8619C17.6789 26.0309 16.1855 23.1896 16.1855 20Z" fill="white"/>
<path d="M36.1741 20C36.1741 25.5229 31.6976 30 26.1754 30C23.8427 30 21.6964 29.2008 19.9951 27.8619C22.3213 26.0309 23.8147 23.1896 23.8147 20C23.8147 16.8104 22.3213 13.9691 19.9951 12.1381C21.6964 10.7992 23.8427 10 26.1754 10C31.6976 10 36.1741 14.4771 36.1741 20Z" fill="white"/>
</svg>
