<svg width="40" height="40" viewBox="0 0 40 40" fill="none" xmlns="http://www.w3.org/2000/svg">
<path d="M15.4223 26.1183H12.02L14.1481 13.9212H17.5502L15.4223 26.1183Z" fill="white"/>
<path d="M27.7559 14.2195C27.0849 13.9727 26.0205 13.7002 24.7044 13.7002C21.3445 13.7002 18.9785 15.361 18.964 17.7354C18.9361 19.4873 20.658 20.4603 21.9458 21.0444C23.2621 21.6413 23.7096 22.0309 23.7096 22.563C23.6962 23.3801 22.6459 23.7567 21.6664 23.7567C20.308 23.7567 19.5802 23.5625 18.4741 23.1079L18.0261 22.9131L17.55 25.6511C18.348 25.988 19.8181 26.2871 21.3445 26.3002C24.9144 26.3002 27.2385 24.6651 27.2661 22.1347C27.2797 20.7463 26.3704 19.6823 24.4102 18.813C23.2202 18.2549 22.4915 17.8786 22.4915 17.3076C22.5054 16.7885 23.1079 16.2568 24.4511 16.2568C25.5572 16.2307 26.3699 16.4772 26.9855 16.7238L27.2932 16.8533L27.7559 14.2195Z" fill="white"/>
<path d="M32.2779 21.7973C32.558 21.0966 33.6362 18.3846 33.6362 18.3846C33.6221 18.4107 33.9158 17.671 34.0838 17.2169L34.3216 18.2679C34.3216 18.2679 34.9659 21.1875 35.1058 21.7973C34.5741 21.7973 32.9499 21.7973 32.2779 21.7973ZM36.4776 13.9212H33.8459C33.0343 13.9212 32.4178 14.1416 32.0676 14.9332L27.014 26.1181H30.5839C30.5839 26.1181 31.1716 24.6127 31.2979 24.2885C31.6896 24.2885 35.1624 24.2885 35.6662 24.2885C35.7639 24.7167 36.0722 26.1181 36.0722 26.1181H39.2224L36.4776 13.9212Z" fill="white"/>
<path d="M9.17828 13.9212L5.84632 22.2384L5.48222 20.5516C4.86621 18.6052 2.93427 16.4905 0.77832 15.439L3.83028 26.1054H7.42811L12.7759 13.9212H9.17828Z" fill="white"/>
</svg>
