<svg width="80" height="80" viewBox="0 0 80 80" fill="none" xmlns="http://www.w3.org/2000/svg">
<rect width="80" height="80" rx="12" fill="#5865F2"/>
<path d="M62.214 19.2079C58.0168 17.2279 53.5765 15.821 49.0105 15.0244C48.4417 16.0612 47.7772 17.4556 47.319 18.5649C42.396 17.8185 37.5182 17.8185 32.6857 18.5649C32.2277 17.4558 31.5482 16.0612 30.9742 15.0244C26.4037 15.8214 21.9596 17.2318 17.7605 19.2183C9.40448 31.9497 7.13923 44.3646 8.27173 56.6038C13.814 60.7767 19.185 63.3118 24.4655 64.9706C25.7778 63.151 26.9379 61.2245 27.9337 59.2112C26.0378 58.4834 24.21 57.5866 22.4722 56.5312C22.9296 56.1895 23.3761 55.8333 23.8112 55.4632C34.3417 60.4294 45.7837 60.4294 56.1887 55.4632C56.6257 55.8309 57.0721 56.187 57.5275 56.5312C55.7869 57.5893 53.9557 58.488 52.056 59.2165C53.0575 61.238 54.2155 63.1663 55.5242 64.9756C60.8097 63.3171 66.1857 60.782 71.728 56.6038C73.057 42.4157 69.458 30.1145 62.214 19.2077V19.2079ZM29.3685 49.077C26.2072 49.077 23.6147 46.1014 23.6147 42.4779C23.6147 38.8545 26.152 35.8739 29.3685 35.8739C32.5852 35.8739 35.1775 38.8492 35.1222 42.4779C35.1272 46.1014 32.5852 49.077 29.3685 49.077ZM50.6312 49.077C47.47 49.077 44.8777 46.1014 44.8777 42.4779C44.8777 38.8545 47.4147 35.8739 50.6312 35.8739C53.848 35.8739 56.4402 38.8492 56.385 42.4779C56.385 46.1014 53.848 49.077 50.6312 49.077Z" fill="white"/>
</svg>
