<svg width="80" height="80" viewBox="0 0 80 80" fill="none" xmlns="http://www.w3.org/2000/svg">
<rect width="80" height="80" rx="12" fill="url(#paint0_linear_39_816)"/>
<path d="M29.337 40C29.337 34.1092 34.1111 29.3325 40.002 29.3325C45.8928 29.3325 50.6695 34.1092 50.6695 40C50.6695 45.8908 45.8928 50.6675 40.002 50.6675C34.1111 50.6675 29.337 45.8908 29.337 40ZM23.5703 40C23.5703 49.0752 30.9268 56.4316 40.002 56.4316C49.0772 56.4316 56.4336 49.0752 56.4336 40C56.4336 30.9248 49.0772 23.5684 40.002 23.5684C30.9268 23.5684 23.5703 30.9248 23.5703 40ZM53.2441 22.9169C53.2438 23.6763 53.4687 24.4189 53.8904 25.0505C54.3121 25.6822 54.9116 26.1746 55.6131 26.4655C56.3147 26.7564 57.0868 26.8328 57.8317 26.6849C58.5767 26.537 59.261 26.1716 59.7983 25.6348C60.3355 25.098 60.7015 24.4139 60.85 23.6691C60.9984 22.9242 60.9227 22.1521 60.6324 21.4503C60.342 20.7485 59.85 20.1486 59.2187 19.7264C58.5874 19.3042 57.8451 19.0787 57.0856 19.0784H57.0841C56.066 19.0789 55.0898 19.4834 54.3698 20.2031C53.6498 20.9228 53.2449 21.8988 53.2441 22.9169ZM27.074 66.0472C23.9541 65.9052 22.2583 65.3855 21.1314 64.9464C19.6374 64.3648 18.5714 63.6721 17.4507 62.5528C16.3299 61.4336 15.6361 60.3686 15.0571 58.8746C14.6178 57.7482 14.0981 56.052 13.9563 52.9321C13.8011 49.559 13.7701 48.5458 13.7701 40.0003C13.7701 31.4547 13.8037 30.4443 13.9563 27.0684C14.0983 23.9485 14.6219 22.2556 15.0571 21.1259C15.6387 19.6319 16.3314 18.5659 17.4507 17.4451C18.5699 16.3244 19.6348 15.6306 21.1314 15.0515C22.2578 14.6122 23.9541 14.0925 27.074 13.9507C30.447 13.7956 31.4603 13.7646 40.002 13.7646C48.5437 13.7646 49.5579 13.7981 52.9338 13.9507C56.0537 14.0928 57.7466 14.6163 58.8763 15.0515C60.3703 15.6306 61.4363 16.3259 62.5571 17.4451C63.6779 18.5644 64.3691 19.6319 64.9507 21.1259C65.39 22.2523 65.9097 23.9485 66.0515 27.0684C66.2066 30.4443 66.2376 31.4547 66.2376 40.0003C66.2376 48.5458 66.2066 49.5562 66.0515 52.9321C65.9094 56.052 65.3872 57.7477 64.9507 58.8746C64.3691 60.3686 63.6763 61.4346 62.5571 62.5528C61.4379 63.671 60.3703 64.3648 58.8763 64.9464C57.7499 65.3857 56.0537 65.9054 52.9338 66.0472C49.5607 66.2024 48.5475 66.2333 40.002 66.2333C31.4564 66.2333 30.446 66.2024 27.074 66.0472ZM26.809 8.19379C23.4024 8.34893 21.0746 8.88909 19.0417 9.68013C16.9364 10.497 15.1541 11.593 13.3731 13.3711C11.5921 15.1493 10.499 16.9344 9.68208 19.0397C8.89104 21.0739 8.35088 23.4004 8.19575 26.807C8.03805 30.219 8.00195 31.3098 8.00195 40C8.00195 48.6902 8.03805 49.781 8.19575 53.193C8.35088 56.5998 8.89104 58.9261 9.68208 60.9603C10.499 63.0643 11.5924 64.8515 13.3731 66.6289C15.1538 68.4063 16.9364 69.5007 19.0417 70.3199C21.0784 71.1109 23.4024 71.6511 26.809 71.8062C30.2228 71.9613 31.3118 72 40.002 72C48.6921 72 49.7829 71.9639 53.1949 71.8062C56.6018 71.6511 58.928 71.1109 60.9622 70.3199C63.0663 69.5007 64.8498 68.407 66.6308 66.6289C68.4118 64.8507 69.5026 63.0643 70.3218 60.9603C71.1129 58.9261 71.6556 56.5996 71.8082 53.193C71.9633 49.7784 71.9994 48.6902 71.9994 40C71.9994 31.3098 71.9633 30.219 71.8082 26.807C71.653 23.4002 71.1129 21.0726 70.3218 19.0397C69.5026 16.9357 68.409 15.1521 66.6308 13.3711C64.8526 11.5901 63.0663 10.497 60.9648 9.68013C58.928 8.88909 56.6015 8.34637 53.1975 8.19379C49.7855 8.03866 48.6947 8 40.0045 8C31.3143 8 30.2228 8.0361 26.809 8.19379Z" fill="white"/>
<defs>
<linearGradient id="paint0_linear_39_816" x1="1.04904e-06" y1="80" x2="72.32" y2="9.6" gradientUnits="userSpaceOnUse">
<stop stop-color="#FEDA75"/>
<stop offset="0.270718" stop-color="#FA7E1E"/>
<stop offset="0.530387" stop-color="#D62976"/>
<stop offset="0.779006" stop-color="#962FBF"/>
<stop offset="1" stop-color="#4F5BD5"/>
</linearGradient>
</defs>
</svg>
