<svg width="80" height="80" viewBox="0 0 80 80" fill="none" xmlns="http://www.w3.org/2000/svg">
<rect width="80" height="80" rx="12" fill="#0077B5"/>
<path d="M70.9759 70.4171C67.0657 70.3245 63.2486 70.3245 59.3384 70.4171C58.5005 70.4171 58.3143 70.2318 58.3143 69.3982C58.3143 62.5442 58.3143 55.5976 58.3143 48.7436C58.3143 47.1691 58.2212 45.5945 57.7557 44.1125C56.3592 39.2962 50.7731 37.5364 46.7698 40.7782C44.6285 42.4454 43.7906 44.7609 43.7906 47.5395C43.7906 54.023 43.7906 60.5066 43.7906 66.9901C43.7906 67.8237 43.6975 68.6573 43.7906 69.5835C43.8837 70.3245 43.5113 70.5097 42.8596 70.4171C38.8563 70.4171 34.9461 70.4171 30.9428 70.4171C30.198 70.4171 30.0118 70.2318 30.0118 69.4909C30.1049 63.6557 30.1049 57.8205 30.1049 51.8928C30.1049 44.6683 30.1049 37.4438 30.0118 30.3119C30.0118 29.4783 30.198 29.2931 30.9428 29.2931C34.9461 29.2931 38.8563 29.2931 42.8596 29.2931C43.6044 29.2931 43.7906 29.4783 43.7906 30.2193C43.7906 31.7013 43.7906 33.1832 43.7906 34.943C44.0699 34.6651 44.163 34.5725 44.2561 34.4799C47.887 29.2005 53.0075 27.7185 59.0591 28.6447C66.0416 29.7562 70.5104 34.5725 71.6276 41.9822C71.9069 43.7421 72 45.5019 72 47.2617C72 54.6714 72 61.9885 72 69.3982C72 70.1392 71.8138 70.4171 70.9759 70.4171Z" fill="white"/>
<path d="M22.5661 49.8552C22.5661 56.3387 22.5661 62.8223 22.5661 69.3058C22.5661 70.1394 22.3799 70.4172 21.542 70.4172C17.6317 70.3246 13.7215 70.4172 9.81132 70.4172C9.06652 70.4172 8.88032 70.232 8.88032 69.491C8.88032 56.4314 8.88032 43.2791 8.88032 30.2195C8.88032 29.5711 9.06652 29.2932 9.81132 29.2932C13.8146 29.2932 17.8179 29.2932 21.8213 29.2932C22.6592 29.2932 22.7523 29.5711 22.7523 30.3121C22.5661 36.7956 22.5661 43.2791 22.5661 49.8552Z" fill="white"/>
<path d="M23.2198 18.549C22.2888 22.2539 18.4717 24.3842 14.096 23.6432C9.44098 22.9022 6.83417 18.3638 8.50998 13.9179C9.62718 11.1393 12.3271 9.47208 15.7718 9.5647C20.9854 9.47208 24.4301 13.6401 23.2198 18.549Z" fill="white"/>
</svg>
