<svg width="80" height="80" viewBox="0 0 80 80" fill="none" xmlns="http://www.w3.org/2000/svg">
<rect width="80" height="80" rx="12" fill="#1ED760"/>
<path d="M54.9777 19.4286H64.1949V28.5714H54.9777V19.4286ZM54.9777 33.1429H64.1949V42.2857H54.9777V33.1429ZM41.152 19.4286H50.3691V28.5714H41.152V19.4286ZM41.152 33.1429H50.3691V42.2857H41.152V33.1429Z" fill="white"/>
<path d="M35.3912 62.8571C37.3002 62.8571 38.8477 61.3221 38.8477 59.4286C38.8477 57.535 37.3002 56 35.3912 56C33.4823 56 31.9348 57.535 31.9348 59.4286C31.9348 61.3221 33.4823 62.8571 35.3912 62.8571Z" fill="white"/>
<path d="M50.3691 72H20.4133C19.1914 71.9988 18.0199 71.5168 17.1559 70.6597C16.2918 69.8027 15.8059 68.6406 15.8047 67.4286V12.5714C15.8059 11.3594 16.2918 10.1973 17.1559 9.34028C18.0199 8.48323 19.1914 8.00121 20.4133 8H50.3691V12.5714H20.4133V67.4286H50.3691V49.1429H54.9777V67.4286C54.9765 68.6406 54.4906 69.8027 53.6266 70.6597C52.7626 71.5168 51.591 71.9988 50.3691 72Z" fill="white"/>
</svg>
