<svg width="80" height="80" viewBox="0 0 80 80" fill="none" xmlns="http://www.w3.org/2000/svg">
<rect width="80" height="80" rx="12" fill="#EE8208"/>
<path d="M39.9988 17.6803C43.8102 17.6803 46.9104 20.7479 46.9104 24.5192C46.9104 28.2873 43.8094 31.3549 39.9988 31.3549C36.1899 31.3549 33.0889 28.2873 33.0889 24.5192C33.0881 20.7471 36.1907 17.6803 39.9988 17.6803ZM39.9988 41.0304C49.2051 41.0304 56.692 33.6247 56.692 24.5192C56.692 15.4089 49.2059 8 39.9988 8C30.7933 8 23.3057 15.4097 23.3057 24.5192C23.3057 33.6247 30.7933 41.0304 39.9988 41.0304ZM46.7521 54.5034C50.1862 53.7295 53.4633 52.3868 56.4451 50.5321C57.5428 49.8487 58.3211 48.7619 58.609 47.5106C58.8969 46.2594 58.6706 44.9462 57.98 43.8601C57.6384 43.3217 57.193 42.8553 56.6691 42.4874C56.1452 42.1195 55.5531 41.8575 54.9268 41.7162C54.3005 41.5749 53.6521 41.5572 53.0189 41.6641C52.3856 41.7709 51.7799 42.0002 51.2362 42.3389C44.3974 46.5932 35.5954 46.5901 28.7622 42.3389C28.2187 42.0001 27.613 41.7707 26.9798 41.6638C26.3465 41.557 25.6982 41.5747 25.072 41.7159C24.4457 41.8572 23.8537 42.1193 23.3298 42.4872C22.806 42.8552 22.3607 43.3217 22.0193 43.8601C21.3284 44.9459 21.1018 46.2589 21.3892 47.5101C21.6766 48.7613 22.4545 49.8483 23.5518 50.5321C26.5333 52.3862 29.8098 53.7288 33.2431 54.5034L23.9114 63.7386C22.9943 64.6463 22.4792 65.8773 22.4795 67.1608C22.4797 68.4443 22.9952 69.6751 23.9125 70.5826C24.8299 71.49 26.074 71.9996 27.3712 71.9994C28.6683 71.9992 29.9122 71.4891 30.8293 70.5814L39.9972 61.5082L49.1708 70.5822C49.6244 71.0316 50.163 71.3882 50.756 71.6315C51.349 71.8748 51.9846 72 52.6265 72C53.2685 72 53.9041 71.8748 54.4971 71.6315C55.09 71.3882 55.6287 71.0316 56.0823 70.5822C56.5372 70.1334 56.8982 69.6002 57.1444 69.0132C57.3907 68.4261 57.5175 67.7968 57.5175 67.1612C57.5175 66.5256 57.3907 65.8962 57.1444 65.3091C56.8982 64.7221 56.5372 64.1889 56.0823 63.7402L46.7521 54.5034Z" fill="white"/>
</svg>
