<svg width="80" height="80" viewBox="0 0 80 80" fill="none" xmlns="http://www.w3.org/2000/svg">
<rect width="80" height="80" rx="12" fill="#419FD9"/>
<path fill-rule="evenodd" clip-rule="evenodd" d="M56.5829 66.1007C60.4172 67.7125 61.8551 64.3353 61.8551 64.3353L72 15.3661C71.9201 12.0657 67.287 14.0613 67.287 14.0613L10.4913 35.4757C10.4913 35.4757 7.77533 36.3968 8.01497 38.0086C8.25462 39.6204 10.4114 40.388 10.4114 40.388L24.7102 44.9932C24.7102 44.9932 29.0238 58.5787 29.9025 61.1884C30.7013 63.7213 31.4202 63.798 31.4202 63.798C32.219 64.105 32.938 63.5678 32.938 63.5678L42.2042 55.5086L56.5829 66.1007ZM59.0592 24.0395C59.0592 24.0395 61.0562 22.8881 60.9763 24.0395C60.9763 24.0395 61.2958 24.193 60.2574 25.2675C59.2988 26.1886 36.6924 45.6842 33.6569 48.2938C33.4172 48.4473 33.2575 48.6776 33.2575 48.9846L32.3788 56.1995C32.219 56.967 31.1805 57.0438 30.9409 56.353L27.1865 44.5328C27.0267 44.0723 27.1865 43.535 27.6658 43.228L59.0592 24.0395Z" fill="white"/>
</svg>
