<svg width="80" height="80" viewBox="0 0 80 80" fill="none" xmlns="http://www.w3.org/2000/svg">
<rect width="80" height="80" rx="12" fill="#FF1351"/>
<path d="M71.2203 27.3199V39.3948C71.2203 40.0353 70.9673 40.6496 70.5169 41.1025C70.0665 41.5554 69.4557 41.8098 68.8188 41.8098C63.8022 41.8231 58.8576 40.611 54.4098 38.2779V49.0548C54.4103 53.4195 53.1727 57.6937 50.8423 61.3759C48.5119 65.0581 45.1854 67.9954 41.2531 69.843C37.3209 71.6906 32.9462 72.3719 28.6424 71.807C24.3386 71.242 20.2844 69.4542 16.9556 66.6534C13.6267 63.8525 11.1615 60.1549 9.84913 55.9946C8.53678 51.8342 8.43179 47.3837 9.54649 43.1654C10.6612 38.9471 12.9493 35.1361 16.1423 32.1797C19.3353 29.2233 23.3007 27.2442 27.573 26.4747C27.9158 26.4128 28.2678 26.4267 28.6048 26.5153C28.9417 26.6039 29.2554 26.7651 29.5242 26.9878C29.8013 27.2127 30.0237 27.4982 30.1745 27.8225C30.3254 28.1468 30.4007 28.5015 30.3948 28.8595V41.4174C30.396 41.8747 30.2666 42.3227 30.0217 42.7081C29.7769 43.0934 29.4271 43.3999 29.0139 43.5909C28.0447 44.0551 27.2171 44.7721 26.6171 45.6672C26.0171 46.5623 25.6668 47.6029 25.6025 48.6804C25.5383 49.758 25.7625 50.8331 26.2519 51.7939C26.7412 52.7547 27.4778 53.566 28.3849 54.1433C29.292 54.7206 30.3364 55.0428 31.4093 55.0762C32.4823 55.1097 33.5445 54.8533 34.4854 54.3337C35.4263 53.8141 36.2115 53.0503 36.7592 52.1218C37.3068 51.1934 37.5969 50.1343 37.5993 49.0548V10.415C37.5993 9.77449 37.8523 9.16023 38.3026 8.70733C38.753 8.25444 39.3638 8 40.0008 8H52.0083C52.6452 8 53.256 8.25444 53.7064 8.70733C54.1568 9.16023 54.4098 9.77449 54.4098 10.415C54.4098 14.258 55.9279 17.9435 58.6301 20.6609C61.3323 23.3783 64.9973 24.9049 68.8188 24.9049C69.4557 24.9049 70.0665 25.1593 70.5169 25.6122C70.9673 26.0651 71.2203 26.6794 71.2203 27.3199Z" fill="white"/>
</svg>
