<svg width="80" height="80" viewBox="0 0 80 80" fill="none" xmlns="http://www.w3.org/2000/svg">
<rect width="80" height="80" rx="12" fill="#1DA1F2"/>
<path d="M65.5497 27.1015C65.5497 27.6821 65.5497 28.2628 65.5497 28.7605C65.5497 45.9312 52.3141 65.7563 28.1885 65.7563C20.733 65.7563 13.8639 63.5996 8 59.9498C9.00524 60.0328 10.0942 60.1157 11.0995 60.1157C17.2147 60.1157 22.911 58.042 27.4346 54.558C21.6544 54.4751 16.7958 50.6594 15.2042 45.5164C16.0419 45.6823 16.7958 45.7653 17.7173 45.7653C18.8901 45.7653 20.0628 45.5994 21.1518 45.2676C15.1204 44.1063 10.5969 38.8804 10.5969 32.5762C10.5969 32.4932 10.5969 32.4932 10.5969 32.4103C12.356 33.4057 14.3665 33.9863 16.5445 34.0693C13.0262 31.7467 10.6806 27.7651 10.6806 23.2028C10.6806 20.7972 11.3508 18.5576 12.4398 16.6497C18.8901 24.53 28.6073 29.6729 39.4974 30.2536C39.2461 29.3411 39.1623 28.2628 39.1623 27.2674C39.1623 20.0507 45.0262 14.2441 52.3141 14.2441C56.0838 14.2441 59.5183 15.8202 61.8639 18.3087C64.8796 17.7281 67.644 16.6497 70.2408 15.1566C69.2356 18.2258 67.1414 20.7143 64.4607 22.3733C67.1414 22.0415 69.6544 21.3779 72 20.2995C70.3246 22.9539 68.1466 25.2765 65.5497 27.1015Z" fill="white"/>
</svg>
