<svg width="80" height="80" viewBox="0 0 80 80" fill="none" xmlns="http://www.w3.org/2000/svg">
<rect width="80" height="80" rx="12" fill="#5181B8"/>
<path fill-rule="evenodd" clip-rule="evenodd" d="M70.5316 23.3999C70.9767 21.9013 70.5316 20.7998 68.4141 20.7998H61.4125C59.6321 20.7998 58.8119 21.7512 58.3668 22.8006C58.3668 22.8006 54.8059 31.5685 49.7617 37.2638C48.1299 38.9125 47.3882 39.4364 46.498 39.4364C46.0529 39.4364 45.4087 38.9125 45.4087 37.4139V23.3999C45.4087 21.6012 44.8921 20.7998 43.4083 20.7998H32.4057C31.2934 20.7998 30.6243 21.6345 30.6243 22.4257C30.6243 24.131 33.1459 24.5241 33.4059 29.3201V39.7371C33.4059 42.0209 32.9978 42.4352 32.1076 42.4352C29.7341 42.4352 23.9607 33.6274 20.5359 23.55C19.8648 21.591 19.1916 20.7998 17.4022 20.7998H10.4006C8.40009 20.7998 8 21.7512 8 22.8006C8 24.6742 10.3741 33.967 19.0526 46.257C24.8389 54.6494 32.9898 59.1998 40.4076 59.1998C44.8586 59.1998 45.4087 58.1893 45.4087 56.4486V50.1051C45.4087 48.084 45.8303 47.6808 47.2392 47.6808C48.2784 47.6808 50.0583 48.2053 54.2128 52.2519C58.9599 57.0474 59.7421 59.1998 62.4127 59.1998H69.4143C71.4148 59.1998 72.415 58.1893 71.8379 56.195C71.2068 54.2073 68.9402 51.3243 65.9325 47.9057C64.3006 45.9569 61.8526 43.8585 61.1114 42.8096C60.0727 41.4605 60.3692 40.8613 61.1114 39.6628C61.1114 39.6628 69.6414 27.5223 70.5316 23.4004V23.3999Z" fill="white"/>
</svg>
