<svg width="80" height="80" viewBox="0 0 80 80" fill="none" xmlns="http://www.w3.org/2000/svg">
<rect width="80" height="80" rx="12" fill="#001935"/>
<path d="M72 53.8405V14.2958C72 12.1208 70.2 10.3413 68 10.3413H12C9.8 10.3413 8 12.1208 8 14.2958V53.8405C8 56.0155 9.8 57.795 12 57.795H68C70.2 57.795 72 56.0155 72 53.8405ZM40 22.2047C49.2 22.2047 57.6 26.7128 64 34.0681C57.6 41.4235 49.2 45.9316 40 45.9316C30.8 45.9316 22.4 41.4235 16 34.0681C22.4 26.7128 30.8 22.2047 40 22.2047ZM48 34.0681C48 29.7182 44.4 26.1592 40 26.1592C35.6 26.1592 32 29.7182 32 34.0681C32 38.4181 35.6 41.9771 40 41.9771C44.4 41.9771 48 38.4181 48 34.0681ZM56 65.7039H68V69.6584H12V65.7039H24V61.7494H56V65.7039Z" fill="white"/>
</svg>
