<svg width="80" height="80" viewBox="0 0 80 80" fill="none" xmlns="http://www.w3.org/2000/svg">
<rect width="80" height="80" rx="12" fill="#D61E3B"/>
<path d="M53.4617 8H44.3139C35.166 8 25.8581 14.8568 25.8581 29.9873C25.6669 33.4944 26.4501 36.986 28.121 40.0759C29.792 43.1657 32.2857 45.7334 35.3261 47.4949L24.0057 67.7223C23.7462 68.162 23.6094 68.6632 23.6094 69.1737C23.6094 69.6842 23.7462 70.1853 24.0057 70.625C24.2404 71.0277 24.5732 71.3645 24.973 71.6042C25.3728 71.844 25.8267 71.9789 26.2927 71.9964H31.9872C32.565 72.0245 33.1375 71.8753 33.628 71.5689C34.1186 71.2625 34.5036 70.8136 34.7315 70.2822L45.2286 49.7119H46.0062V69.4137C46.0088 69.7658 46.0828 70.1137 46.2237 70.4364C46.3646 70.7591 46.5694 71.05 46.8259 71.2913C47.0824 71.5327 47.3852 71.7197 47.716 71.8408C48.0468 71.962 48.3987 72.0149 48.7506 71.9964H53.7361C54.408 72.0213 55.0627 71.7813 55.559 71.328C56.0553 70.8748 56.3534 70.2446 56.389 69.5737V10.7884C56.3981 10.4312 56.3367 10.0757 56.2083 9.74223C56.0799 9.40874 55.887 9.10381 55.6407 8.84486C55.3943 8.58591 55.0993 8.37801 54.7725 8.23305C54.4457 8.08808 54.0935 8.00889 53.7361 8H53.4617ZM46.1892 40.6382H44.8399C39.5799 40.6382 36.4696 36.3641 36.4696 29.2102C36.4696 20.2964 40.426 17.1195 44.108 17.1195H46.2578L46.1892 40.6382Z" fill="white"/>
</svg>
