<svg width="80" height="80" viewBox="0 0 80 80" fill="none" xmlns="http://www.w3.org/2000/svg">
<rect width="80" height="80" rx="12" fill="#FF0000"/>
<path fill-rule="evenodd" clip-rule="evenodd" d="M65.041 18.9705C67.7823 19.7083 69.9437 21.8693 70.6818 24.61C72.0525 29.617 71.9997 40.0528 71.9997 40.0528C71.9997 40.0528 71.9997 50.4359 70.6818 55.4429C69.9437 58.1836 67.7823 60.3446 65.041 61.0825C60.0327 62.4001 39.9999 62.4001 39.9999 62.4001C39.9999 62.4001 20.0197 62.4001 14.9588 61.0297C12.2174 60.2919 10.056 58.1309 9.31795 55.3902C8 50.4359 8 40.0001 8 40.0001C8 40.0001 8 29.617 9.31795 24.61C10.056 21.8693 12.2702 19.6556 14.9588 18.9177C19.967 17.6001 39.9999 17.6001 39.9999 17.6001C39.9999 17.6001 60.0327 17.6001 65.041 18.9705ZM50.2796 40.0002L33.6207 49.5926V30.4077L50.2796 40.0002Z" fill="white"/>
</svg>
